<?xml version="1.0" encoding="UTF-8"?>
<svg version="1.1" xmlns="http://www.w3.org/2000/svg" width="729" height="413">
<path d="M0 0 C0.78117188 0.65871094 1.56234375 1.31742188 2.3671875 1.99609375 C16.67551385 14.35328469 27.37091257 29.78663189 35 47 C35.28214355 47.63437988 35.56428711 48.26875977 35.85498047 48.92236328 C50.82725503 83.14596553 50.86449467 120.53824097 37.77734375 155.2421875 C36.58426271 158.19611805 35.31881746 161.10019052 34 164 C33.57203125 164.96164063 33.1440625 165.92328125 32.703125 166.9140625 C26.73381822 179.62399098 17.89574067 192.10211091 7.36328125 201.453125 C2.82441532 205.77090004 3.26729517 211.29169913 3.04296875 217.1484375 C3.02878906 218.08945312 3.01460937 219.03046875 3 220 C4.71896484 219.89558594 4.71896484 219.89558594 6.47265625 219.7890625 C20.27527187 219.19522197 20.27527187 219.19522197 24.5 222.5625 C27.35026421 225.8014366 28.15525474 228.65286725 28 233 C26.25301922 238.24094233 23.80724136 240.41197664 19 243 C15.95697835 243.56014914 12.97855278 243.54487535 9.89086914 243.5146637 C8.52970647 243.52508199 8.52970647 243.52508199 7.14104557 243.53571075 C4.10549789 243.55398242 1.07073157 243.54371588 -1.96484375 243.53344727 C-4.14316391 243.54050559 -6.32147916 243.54925024 -8.49978638 243.55955505 C-14.41294879 243.58206702 -20.32584378 243.57910518 -26.23903275 243.57023358 C-31.17464868 243.565126 -36.11021426 243.57241432 -41.045825 243.57970566 C-52.68782128 243.59671005 -64.3296865 243.59313285 -75.97167969 243.57641602 C-87.9858241 243.55948802 -99.99954866 243.5753375 -112.01365948 243.6076389 C-122.32719202 243.63431848 -132.6406114 243.64161536 -142.954175 243.63312382 C-149.11470411 243.62819063 -155.27501461 243.63043185 -161.43551636 243.65091133 C-167.22719269 243.66924298 -173.01834567 243.66334001 -178.80999374 243.63871193 C-180.93605156 243.63369639 -183.06214909 243.63721295 -185.1881752 243.64986038 C-188.08967745 243.66575624 -190.98944898 243.65087241 -193.89086914 243.62818909 C-194.7330899 243.64002482 -195.57531065 243.65186054 -196.44305325 243.66405493 C-202.32874809 243.57050827 -204.87396514 242.2136071 -209 238 C-211.23794091 235.17824841 -210.99645561 233.77670345 -210.9375 230.0625 C-210.28014922 225.7656705 -208.39286462 223.73084225 -205 221 C-201.81175432 219.40587716 -198.37103338 219.89825265 -194.875 219.9375 C-194.12089844 219.94201172 -193.36679687 219.94652344 -192.58984375 219.95117188 C-190.72652873 219.96296501 -188.86325445 219.98090058 -187 220 C-186.29340658 210.22688951 -186.29340658 210.22688951 -190.3515625 201.671875 C-192.37444967 199.49507988 -194.52007036 197.45160866 -196.65625 195.38671875 C-220.09572886 172.56442524 -230.46350564 135.905635 -231 104 C-230.73048875 65.99891406 -215.01724234 31.05240667 -188.33203125 4.328125 C-178.34214419 -5.34299058 -166.55211823 -13.95956085 -154 -20 C-152.55753906 -20.69996094 -152.55753906 -20.69996094 -151.0859375 -21.4140625 C-100.31952608 -44.59778668 -42.19365875 -35.97188195 0 0 Z M-168 5 C-168.94101562 5.70769531 -169.88203125 6.41539063 -170.8515625 7.14453125 C-181.17880391 15.21723404 -190.05463327 24.86561163 -197 36 C-197.34772461 36.55606934 -197.69544922 37.11213867 -198.05371094 37.68505859 C-215.79009911 66.45861807 -221.6256529 100.31410044 -214.03515625 133.359375 C-209.7637856 150.59660367 -202.38107376 165.65457303 -192 180 C-191.44957031 180.79664063 -190.89914062 181.59328125 -190.33203125 182.4140625 C-189.89246094 182.93742188 -189.45289063 183.46078125 -189 184 C-188.34 184 -187.68 184 -187 184 C-185.98153596 177.43656505 -187.34523461 173.82094284 -191.0625 168.4375 C-207.5384169 144.55231434 -213.43705798 113.18524539 -208.74609375 84.68359375 C-202.34838477 53.09699917 -185.81251108 25.31575222 -158.9375 6.9375 C-147.66759201 -0.52440329 -135.07329809 -6.50816425 -122 -10 C-120.90816406 -10.29777344 -119.81632812 -10.59554687 -118.69140625 -10.90234375 C-87.51058846 -18.06238339 -54.84141609 -11.91621895 -27.87548828 4.79248047 C-0.06297198 22.69936743 17.21049944 49.75141032 24.421875 81.8671875 C30.2000535 113.17866827 23.74337009 143.26682426 7 170 C6.25492188 171.0415625 5.50984375 172.083125 4.7421875 173.15625 C2.92441832 176.123371 2.5435322 177.46828133 2.75 180.875 C2.78609375 181.65617188 2.8221875 182.43734375 2.859375 183.2421875 C2.90578125 183.82226562 2.9521875 184.40234375 3 185 C17.06445416 174.85191749 25.51954442 152.19073722 30 136 C30.3196875 134.85273438 30.639375 133.70546875 30.96875 132.5234375 C38.36299828 100.55016022 31.69869874 66.11863762 14.94140625 38.23876953 C-3.80020417 8.29853201 -33.07527306 -10.8301907 -67.06640625 -18.7109375 C-102.59718084 -25.53047421 -139.31953728 -17.02936346 -168 5 Z M-140.53222656 41.61303711 C-142.53524125 44.87043475 -143.15042822 48.23713648 -143.859375 51.94140625 C-144.01287415 52.70549301 -144.16637329 53.46957977 -144.32452393 54.25682068 C-144.6454436 55.86706381 -144.9611554 57.47835255 -145.27197266 59.09057617 C-145.74953244 61.5600822 -146.2465329 64.0250956 -146.74609375 66.49023438 C-147.05585011 68.05706227 -147.36448267 69.62411285 -147.671875 71.19140625 C-147.82074158 71.92895645 -147.96960815 72.66650665 -148.12298584 73.42640686 C-148.75598214 76.76062525 -149.09192302 78.72423094 -148 82 C-137.77 82 -127.54 82 -117 82 C-115.4045938 65.15035758 -115.4045938 65.15035758 -114.5625 48.25 C-114.52253906 46.93515625 -114.48257813 45.6203125 -114.44140625 44.265625 C-114.72677497 40.88555725 -114.72677497 40.88555725 -117.125 38.57421875 C-124.24261266 34.67693899 -134.85190274 35.63312961 -140.53222656 41.61303711 Z M-70 41 C-70.68718468 44.10416566 -70.68718468 44.10416566 -70.4375 47.6875 C-70.42009766 48.35652344 -70.40269531 49.02554688 -70.38476562 49.71484375 C-70.01218528 60.49101358 -68.93345273 71.26529357 -68 82 C-57.44 82 -46.88 82 -36 82 C-37.34081377 73.2847105 -38.71446132 64.64951475 -40.375 56 C-40.5709375 54.90816406 -40.766875 53.81632812 -40.96875 52.69140625 C-42.21053294 46.27028812 -43.24257937 41.66655658 -48.81640625 37.7109375 C-51.89601731 36.70827343 -54.70385499 36.65951062 -57.9375 36.625 C-59.14277344 36.59664063 -60.34804688 36.56828125 -61.58984375 36.5390625 C-65.67702018 37.09151017 -67.29439503 37.89412763 -70 41 Z M-154 139 C-154.86625 140.3921875 -154.86625 140.3921875 -155.75 141.8125 C-158.11167173 145.15820162 -159.35337628 146.28187921 -163 148 C-165.64560328 148.33761883 -168.10234825 148.55357972 -170.75 148.625 C-175.23742905 148.39541275 -175.23742905 148.39541275 -179 150 C-179.09952293 152.14200324 -179.12799679 154.28732705 -179.12939453 156.43164062 C-179.13114685 157.10317673 -179.13289917 157.77471283 -179.13470459 158.46659851 C-179.1391223 160.69650828 -179.13618542 162.92633936 -179.1328125 165.15625 C-179.13348556 166.69942236 -179.13445561 168.24259461 -179.13571167 169.7857666 C-179.13718853 173.0240174 -179.13503447 176.26224067 -179.13037109 179.50048828 C-179.1246738 183.66042523 -179.12795287 187.82029766 -179.13394356 191.98023224 C-179.13754949 195.16799408 -179.13641044 198.35574051 -179.13381577 201.54350281 C-179.13314658 203.07777412 -179.13397461 204.61204682 -179.13629532 206.14631653 C-179.13882238 208.28703541 -179.13498054 210.42764842 -179.12939453 212.56835938 C-179.12859894 213.78890015 -179.12780334 215.00944092 -179.12698364 216.26696777 C-179.31149888 218.91300985 -179.31149888 218.91300985 -178 220 C-175.78738192 220.09921401 -173.57153071 220.12632413 -171.35668945 220.12698364 C-170.30290966 220.12932363 -170.30290966 220.12932363 -169.22784138 220.13171089 C-166.85630046 220.1357232 -164.48482273 220.13253036 -162.11328125 220.12939453 C-160.42019615 220.13074847 -158.72711134 220.13252836 -157.0340271 220.13470459 C-152.42258869 220.13927981 -147.81117255 220.137489 -143.19973373 220.1343255 C-138.38486417 220.13180236 -133.56999658 220.13413931 -128.75512695 220.13571167 C-120.66780249 220.1375335 -112.58048714 220.13512671 -104.49316406 220.13037109 C-95.1290619 220.12492845 -85.7649815 220.1266911 -76.40087986 220.1321975 C-68.37628015 220.13672825 -60.35168702 220.13737936 -52.32708645 220.13475883 C-47.52767518 220.13319585 -42.72827415 220.13300287 -37.92886353 220.13629532 C-33.41785279 220.13917349 -28.90687025 220.13719935 -24.39586258 220.13140106 C-22.73534823 220.13007317 -21.07483152 220.13046807 -19.41431808 220.13266373 C-17.15728298 220.1353741 -14.90033971 220.13199552 -12.64331055 220.12698364 C-11.37714401 220.12660662 -10.11097748 220.12622959 -8.80644226 220.12584114 C-6.09560906 220.32051642 -6.09560906 220.32051642 -5 219 C-4.90047707 216.85799676 -4.87200321 214.71267295 -4.87060547 212.56835938 C-4.86885315 211.89682327 -4.86710083 211.22528717 -4.86529541 210.53340149 C-4.8608777 208.30349172 -4.86381458 206.07366064 -4.8671875 203.84375 C-4.86651444 202.30057764 -4.86554439 200.75740539 -4.86428833 199.2142334 C-4.86281147 195.9759826 -4.86496553 192.73775933 -4.86962891 189.49951172 C-4.8753262 185.33957477 -4.87204713 181.17970234 -4.86605644 177.01976776 C-4.86245051 173.83200592 -4.86358956 170.64425949 -4.86618423 167.45649719 C-4.86685342 165.92222588 -4.86602539 164.38795318 -4.86370468 162.85368347 C-4.86117762 160.71296459 -4.86501946 158.57235158 -4.87060547 156.43164062 C-4.87140106 155.21109985 -4.87219666 153.99055908 -4.87301636 152.73303223 C-4.68850112 150.08699015 -4.68850112 150.08699015 -6 149 C-9.27901567 148.82980888 -12.55094107 148.70301263 -15.83398438 148.65820312 C-20.95877813 148.45472563 -23.90182815 147.31872758 -28 144 C-30.375 141.25 -30.375 141.25 -32 139 C-32.31453125 139.48210937 -32.6290625 139.96421875 -32.953125 140.4609375 C-33.38109375 141.09257812 -33.8090625 141.72421875 -34.25 142.375 C-34.66765625 143.00148437 -35.0853125 143.62796875 -35.515625 144.2734375 C-37.77214105 146.89812196 -39.95880872 147.8805608 -43.39428711 148.2746582 C-46.24246573 148.30291552 -49.08916122 148.32174185 -51.9375 148.3125 C-52.92685547 148.32861328 -53.91621094 148.34472656 -54.93554688 148.36132812 C-64.08432485 148.36748063 -64.08432485 148.36748063 -68 145 C-70.3125 141.8125 -70.3125 141.8125 -72 139 C-72.598125 139.763125 -73.19625 140.52625 -73.8125 141.3125 C-78.23404255 146.74468085 -78.23404255 146.74468085 -82 148 C-85.45394084 148.25424949 -88.91267423 148.23128473 -92.375 148.25 C-93.32117188 148.270625 -94.26734375 148.29125 -95.2421875 148.3125 C-104.0452174 148.36195522 -104.0452174 148.36195522 -108 145 C-110.3125 141.8125 -110.3125 141.8125 -112 139 C-112.391875 139.391875 -112.78375 139.78375 -113.1875 140.1875 C-113.785625 140.785625 -114.38375 141.38375 -115 142 C-115.845625 142.86625 -116.69125 143.7325 -117.5625 144.625 C-122.14400092 149.08902654 -126.63075507 148.25366111 -132.75 148.3125 C-133.74 148.34150391 -134.73 148.37050781 -135.75 148.40039062 C-141.83664656 148.45328261 -145.397462 148.11020816 -150 144 C-151.8125 141.25 -151.8125 141.25 -153 139 C-153.33 139 -153.66 139 -154 139 Z " fill="#1E180B" transform="translate(453,50)"/>
<path d="M0 0 C0.78117188 0.65871094 1.56234375 1.31742188 2.3671875 1.99609375 C16.67551385 14.35328469 27.37091257 29.78663189 35 47 C35.28214355 47.63437988 35.56428711 48.26875977 35.85498047 48.92236328 C50.82725503 83.14596553 50.86449467 120.53824097 37.77734375 155.2421875 C36.58426271 158.19611805 35.31881746 161.10019052 34 164 C33.57203125 164.96164063 33.1440625 165.92328125 32.703125 166.9140625 C26.73381822 179.62399098 17.89574067 192.10211091 7.36328125 201.453125 C2.82441532 205.77090004 3.26729517 211.29169913 3.04296875 217.1484375 C3.02878906 218.08945312 3.01460937 219.03046875 3 220 C4.20398438 219.97679687 5.40796875 219.95359375 6.6484375 219.9296875 C8.22395215 219.91093137 9.79947348 219.89273101 11.375 219.875 C12.1690625 219.85824219 12.963125 219.84148437 13.78125 219.82421875 C15.85492015 219.80664527 17.92883241 219.89664832 20 220 C20.66 220.66 21.32 221.32 22 222 C12.1 221.505 12.1 221.505 2 221 C1.86444822 209.61260787 1.75436988 198.22575148 1.68912697 186.83773518 C1.65781359 181.54980307 1.61534012 176.26245149 1.54736328 170.97485352 C1.48217175 165.87197859 1.44629401 160.76966202 1.43073654 155.66640282 C1.41964987 153.71947628 1.39799964 151.77258032 1.36561966 149.82589149 C1.32205822 147.09850668 1.31606563 144.37342866 1.31884766 141.64575195 C1.297276 140.84086334 1.27570435 140.03597473 1.253479 139.20669556 C1.31306931 133.80744235 1.31306931 133.80744235 3.31642246 131.452631 C4.8159637 130.22250255 6.40628647 129.1054036 8 128 C11.32595745 123.0603811 11.42845067 118.76578431 11.36328125 113.015625 C11.36377975 112.15998962 11.36427826 111.30435425 11.36479187 110.42279053 C11.36245909 108.61744865 11.35277772 106.81210304 11.33618164 105.00683594 C11.31269313 102.27248329 11.31561432 99.53911483 11.32226562 96.8046875 C11.31950204 84.27376415 11.31950204 84.27376415 9 72 C8.7421875 71.00226563 8.484375 70.00453125 8.21875 68.9765625 C7.9815625 68.20054688 7.744375 67.42453125 7.5 66.625 C7.2628125 65.83351563 7.025625 65.04203125 6.78125 64.2265625 C6.06243647 62.00758477 6.06243647 62.00758477 4.99609375 60.078125 C3.75216194 57.48294177 3.19431124 54.93067027 2.5625 52.125 C1.50832193 47.71466318 0.20433872 43.9888034 -2 40 C-2 39.34 -2 38.68 -2 38 C-2.556875 37.7525 -3.11375 37.505 -3.6875 37.25 C-6.39870944 35.78448139 -8.59618256 33.92305395 -11 32 C-15.41429703 29.41197314 -19.43721397 29.63258193 -24.4375 29.625 C-25.28376953 29.60050781 -26.13003906 29.57601562 -27.00195312 29.55078125 C-31.29023818 29.53063269 -33.41965479 29.62090943 -37.09765625 32.0234375 C-37.72542969 32.67570312 -38.35320312 33.32796875 -39 34 C-39.515625 33.71125 -40.03125 33.4225 -40.5625 33.125 C-46.61276318 30.33257084 -52.05036346 29.68030421 -58.625 29.75 C-59.73101562 29.73839844 -59.73101562 29.73839844 -60.859375 29.7265625 C-64.98833687 29.74136165 -68.36159487 29.97114956 -72 32 C-72.66 32.99 -73.32 33.98 -74 35 C-76.24978293 33.87510853 -78.43065905 32.74316117 -80.59375 31.453125 C-84.85369307 29.63580984 -88.29921369 29.52048527 -92.875 29.5625 C-93.63941406 29.54251953 -94.40382813 29.52253906 -95.19140625 29.50195312 C-99.564379 29.50566533 -102.30930822 29.99079278 -106.0703125 32.27734375 C-108.04418945 33.38891602 -108.04418945 33.38891602 -110 34 C-112.21671148 33.30393653 -113.94234554 32.26336052 -115.92431641 31.05761719 C-119.55185298 29.20928874 -123.19888522 29.49795276 -127.1875 29.625 C-127.96802734 29.62628906 -128.74855469 29.62757812 -129.55273438 29.62890625 C-133.82830647 29.69418216 -137.08439655 30.12857188 -141 32 C-142.65919896 32.36871088 -144.3247643 32.71281674 -146 33 C-146 32.34 -146 31.68 -146 31 C-151.01418072 30.00518655 -155.84692436 29.78379635 -160.9375 29.75 C-161.71029297 29.729375 -162.48308594 29.70875 -163.27929688 29.6875 C-170.10961007 29.64131022 -175.65204622 31.14480592 -180.75 36 C-184.19132788 39.63336627 -185.28786884 43.22257138 -186.296875 48.05859375 C-187.35945803 52.50373274 -189.0347276 56.7050634 -190.80517578 60.91430664 C-196.38689042 74.50760377 -196.52918099 88.02891176 -196.4375 102.5 C-196.43140717 103.47063385 -196.42531433 104.4412677 -196.41903687 105.4413147 C-196.39411825 108.24245664 -196.3561153 111.04290527 -196.30859375 113.84375 C-196.2946759 114.69196823 -196.28075806 115.54018646 -196.26641846 116.41410828 C-196.14800767 122.27337035 -196.14800767 122.27337035 -195 128 C-193.23470405 129.21690533 -193.23470405 129.21690533 -191 130 C-188.39485168 131.02851868 -188.39485168 131.02851868 -186 133 C-185.51350691 135.9949727 -185.36606628 138.42330675 -185.43237305 141.41870117 C-185.43164291 142.27745346 -185.43091278 143.13620575 -185.43016052 144.02098083 C-185.43364678 146.86228385 -185.47255616 149.70195182 -185.51171875 152.54296875 C-185.5210432 154.51165369 -185.52816105 156.48035022 -185.53315735 158.4490509 C-185.55225609 163.63284286 -185.6013819 168.81593529 -185.65667725 173.99945068 C-185.7078076 179.28794897 -185.73065811 184.57656021 -185.75585938 189.86523438 C-185.80949766 200.24379708 -185.89484543 210.62184039 -186 221 C-187.03205566 221.0424585 -188.06411133 221.08491699 -189.12744141 221.12866211 C-190.49384627 221.19844845 -191.86021848 221.26887614 -193.2265625 221.33984375 C-193.90533447 221.36606812 -194.58410645 221.39229248 -195.28344727 221.41931152 C-200.25465666 221.6958256 -203.45221375 222.54136151 -206.90234375 226.16796875 C-208.84449428 229.40949401 -208.93543252 232.25508597 -209 236 C-209.66 235.34 -210.32 234.68 -211 234 C-210.91833872 229.01866197 -210.77865312 226.93837683 -207.5625 223.0625 C-203.32253042 219.64984156 -200.13334236 219.87846852 -194.875 219.9375 C-194.12089844 219.94201172 -193.36679687 219.94652344 -192.58984375 219.95117188 C-190.72652873 219.96296501 -188.86325445 219.98090058 -187 220 C-186.29340658 210.22688951 -186.29340658 210.22688951 -190.3515625 201.671875 C-192.37444967 199.49507988 -194.52007036 197.45160866 -196.65625 195.38671875 C-220.09572886 172.56442524 -230.46350564 135.905635 -231 104 C-230.73048875 65.99891406 -215.01724234 31.05240667 -188.33203125 4.328125 C-178.34214419 -5.34299058 -166.55211823 -13.95956085 -154 -20 C-152.55753906 -20.69996094 -152.55753906 -20.69996094 -151.0859375 -21.4140625 C-100.31952608 -44.59778668 -42.19365875 -35.97188195 0 0 Z M-168 5 C-168.94101562 5.70769531 -169.88203125 6.41539063 -170.8515625 7.14453125 C-181.17880391 15.21723404 -190.05463327 24.86561163 -197 36 C-197.34772461 36.55606934 -197.69544922 37.11213867 -198.05371094 37.68505859 C-215.79009911 66.45861807 -221.6256529 100.31410044 -214.03515625 133.359375 C-209.7637856 150.59660367 -202.38107376 165.65457303 -192 180 C-191.44957031 180.79664063 -190.89914062 181.59328125 -190.33203125 182.4140625 C-189.89246094 182.93742188 -189.45289063 183.46078125 -189 184 C-188.34 184 -187.68 184 -187 184 C-185.98153596 177.43656505 -187.34523461 173.82094284 -191.0625 168.4375 C-207.5384169 144.55231434 -213.43705798 113.18524539 -208.74609375 84.68359375 C-202.34838477 53.09699917 -185.81251108 25.31575222 -158.9375 6.9375 C-147.66759201 -0.52440329 -135.07329809 -6.50816425 -122 -10 C-120.90816406 -10.29777344 -119.81632812 -10.59554687 -118.69140625 -10.90234375 C-87.51058846 -18.06238339 -54.84141609 -11.91621895 -27.87548828 4.79248047 C-0.06297198 22.69936743 17.21049944 49.75141032 24.421875 81.8671875 C30.2000535 113.17866827 23.74337009 143.26682426 7 170 C6.25492188 171.0415625 5.50984375 172.083125 4.7421875 173.15625 C2.92441832 176.123371 2.5435322 177.46828133 2.75 180.875 C2.78609375 181.65617188 2.8221875 182.43734375 2.859375 183.2421875 C2.90578125 183.82226562 2.9521875 184.40234375 3 185 C17.06445416 174.85191749 25.51954442 152.19073722 30 136 C30.3196875 134.85273438 30.639375 133.70546875 30.96875 132.5234375 C38.36299828 100.55016022 31.69869874 66.11863762 14.94140625 38.23876953 C-3.80020417 8.29853201 -33.07527306 -10.8301907 -67.06640625 -18.7109375 C-102.59718084 -25.53047421 -139.31953728 -17.02936346 -168 5 Z " fill="#E9CD94" transform="translate(453,50)"/>
<path d="M0 0 C0.78117188 0.65871094 1.56234375 1.31742188 2.3671875 1.99609375 C16.67551385 14.35328469 27.37091257 29.78663189 35 47 C35.28214355 47.63437988 35.56428711 48.26875977 35.85498047 48.92236328 C50.82725503 83.14596553 50.86449467 120.53824097 37.77734375 155.2421875 C36.58426271 158.19611805 35.31881746 161.10019052 34 164 C33.57203125 164.96164063 33.1440625 165.92328125 32.703125 166.9140625 C27.25908865 178.50557811 19.68705205 188.52879904 10.98046875 197.8671875 C9.24394958 199.73728507 7.60751963 201.64438842 6 203.625 C5.34 204.40875 4.68 205.1925 4 206 C3.67 206 3.34 206 3 206 C2.82423567 202.64650673 2.71867563 199.29421021 2.625 195.9375 C2.57472656 194.99455078 2.52445313 194.05160156 2.47265625 193.08007812 C2.37134522 188.23403387 2.43847586 185.00478749 5.71875 181.26953125 C6.2648291 180.72562744 6.8109082 180.18172363 7.37353516 179.62133789 C25.4855585 161.56640739 32.19709425 130.64396152 32.25 106.1875 C32.21813281 69.33764772 18.60269413 38.64119771 -7.39453125 12.6015625 C-31.67327459 -10.34849339 -64.44523789 -20.75451309 -97.47167969 -19.93896484 C-123.1563887 -18.73993691 -147.63619042 -9.64769304 -168 6 C-168.95261719 6.71929687 -169.90523438 7.43859375 -170.88671875 8.1796875 C-196.01401883 27.87500499 -210.96898992 57.57221811 -215.55859375 88.80078125 C-219.42595697 121.14565075 -210.59737023 154.07014619 -191 180 C-190.2471875 180.57492188 -189.494375 181.14984375 -188.71875 181.7421875 C-185.78589087 185.59489791 -186.58794467 190.06909398 -186.75 194.75 C-186.76804687 195.73355469 -186.78609375 196.71710938 -186.8046875 197.73046875 C-186.85175874 200.15463783 -186.91749258 202.57682059 -187 205 C-212.64042358 184.45831587 -226.57609037 149.90927728 -230.234375 117.95263672 C-233.89713778 81.54512686 -222.57925106 45.57856898 -200 17 C-187.56195473 1.8101748 -171.76605504 -11.45046498 -154 -20 C-152.55753906 -20.69996094 -152.55753906 -20.69996094 -151.0859375 -21.4140625 C-100.31952608 -44.59778668 -42.19365875 -35.97188195 0 0 Z " fill="#EDD19A" transform="translate(453,50)"/>
<path d="M0 0 C1.06950394 -0.00788544 1.06950394 -0.00788544 2.16061401 -0.01593018 C4.50183452 -0.02906205 6.84236713 -0.02041679 9.18359375 -0.01025391 C10.81974416 -0.01227661 12.45589368 -0.01518969 14.09204102 -0.01895142 C17.51489883 -0.02336553 20.93752119 -0.01697329 24.36035156 -0.00292969 C28.73841598 0.01416179 33.11592859 0.00431569 37.49397278 -0.01364708 C40.87068813 -0.0245097 44.24727357 -0.02102725 47.62399292 -0.0132637 C49.23786485 -0.01126854 50.85174873 -0.01369686 52.46560669 -0.02070236 C54.72478283 -0.02835794 56.98307673 -0.01665639 59.2421875 0 C61.16695923 0.00358017 61.16695923 0.00358017 63.13061523 0.00723267 C67.80846567 0.5177734 71.24932138 1.87450373 74.43359375 5.38818359 C76.92773165 9.5888369 76.79751885 13.61354413 76.82421875 18.34521484 C76.82991882 19.12579758 76.8356189 19.90638031 76.8414917 20.71061707 C76.85093325 22.36232145 76.85747233 24.01404461 76.86132812 25.66577148 C76.87101793 28.18100246 76.90204176 30.69541051 76.93359375 33.21044922 C76.94012589 34.81786626 76.94537553 36.42528913 76.94921875 38.03271484 C76.96156555 38.77979202 76.97391235 39.5268692 76.9866333 40.29658508 C76.96311894 45.86439832 75.98166233 50.00490467 71.9954071 54.0295105 C68.68750004 55.92242169 65.61138659 55.81523878 61.90258789 55.79223633 C61.1297496 55.79909958 60.35691132 55.80596283 59.56065369 55.81303406 C57.00899826 55.83131733 54.4579568 55.82746244 51.90625 55.82177734 C50.13032328 55.82633853 48.35439833 55.83164392 46.57847595 55.83766174 C42.85701323 55.84659591 39.13576506 55.8441664 35.41430664 55.83422852 C30.64813038 55.82274032 25.88269515 55.8429462 21.11661625 55.87214565 C17.44912521 55.89050319 13.78181188 55.89021607 10.11428642 55.88450813 C8.35723265 55.88435485 6.60016688 55.89040477 4.84315681 55.90279961 C2.38463159 55.91769918 -0.07252315 55.90704118 -2.53100586 55.88989258 C-3.25480438 55.89956055 -3.97860291 55.90922852 -4.72433472 55.91918945 C-9.55317646 55.84875675 -11.96595457 54.77806418 -15.37890625 51.38818359 C-18.14718293 47.70307879 -17.70241394 43.31768839 -17.71484375 38.89599609 C-17.72150055 38.07243622 -17.72815735 37.24887634 -17.73501587 36.40036011 C-17.74512628 34.66048409 -17.74983339 32.92056942 -17.74951172 31.18066406 C-17.75387998 28.52912952 -17.7902009 25.87926702 -17.828125 23.22802734 C-17.83399465 21.53402259 -17.83796305 19.84000997 -17.83984375 18.14599609 C-17.85421478 17.35830841 -17.86858582 16.57062073 -17.88339233 15.75906372 C-17.84040061 10.5369417 -16.97348724 7.43311584 -13.37890625 3.38818359 C-8.79193909 0.58565962 -5.33841648 0.00992972 0 0 Z M-8.37890625 20.38818359 C-8.40777162 24.70066969 -8.4256588 29.01313121 -8.44140625 33.32568359 C-8.44978516 34.55738281 -8.45816406 35.78908203 -8.46679688 37.05810547 C-8.47001953 38.22792969 -8.47324219 39.39775391 -8.4765625 40.60302734 C-8.48179932 41.68704834 -8.48703613 42.77106934 -8.49243164 43.88793945 C-8.66317522 46.32868307 -8.66317522 46.32868307 -7.37890625 47.38818359 C-5.08379129 47.48789514 -2.78556076 47.51618226 -0.48828125 47.51757812 C0.23202271 47.51933044 0.95232666 47.52108276 1.69445801 47.52288818 C4.08669409 47.52730648 6.47885685 47.5243688 8.87109375 47.52099609 C10.52636733 47.52166914 12.18164082 47.52263917 13.83691406 47.52389526 C17.31055642 47.52537221 20.78417312 47.5232178 24.2578125 47.51855469 C28.72041873 47.5128574 33.18296483 47.51613642 37.64556885 47.52212715 C41.06494605 47.52573287 44.4843089 47.52459413 47.90368652 47.52199936 C49.54960131 47.52133012 51.19551738 47.52215841 52.84143066 47.52447891 C55.13781206 47.52700561 57.43409474 47.52316463 59.73046875 47.51757812 C61.03983398 47.51678253 62.34919922 47.51598694 63.69824219 47.51516724 C66.51178759 47.72273942 66.51178759 47.72273942 67.62109375 46.38818359 C67.70857582 44.46150852 67.72806709 42.53166498 67.71875 40.60302734 C67.71552734 39.43320313 67.71230469 38.26337891 67.70898438 37.05810547 C67.70060547 35.82640625 67.69222656 34.59470703 67.68359375 33.32568359 C67.67908203 32.09011719 67.67457031 30.85455078 67.66992188 29.58154297 C67.65808983 26.51704242 67.64160548 23.45263638 67.62109375 20.38818359 C64.68765972 18.92146658 62.09154465 19.26084304 58.81640625 19.25878906 C58.1170697 19.25703674 57.41773315 19.25528442 56.69720459 19.253479 C54.38014257 19.24906936 52.06315658 19.25199536 49.74609375 19.25537109 C48.13948553 19.2546978 46.5328774 19.25372756 44.92626953 19.25247192 C41.55695629 19.25099615 38.18766954 19.25314564 34.81835938 19.2578125 C30.49376314 19.26350972 26.16922897 19.26023007 21.84463501 19.25424004 C18.52644379 19.25063117 15.20826734 19.25177451 11.89007568 19.25436783 C10.29522698 19.25503619 8.70037694 19.25421181 7.10552979 19.25188828 C4.87891064 19.24935644 2.65239282 19.25320987 0.42578125 19.25878906 C-0.84281738 19.25958466 -2.11141602 19.26038025 -3.41845703 19.26119995 C-6.30951838 19.18329257 -6.30951838 19.18329257 -8.37890625 20.38818359 Z " fill="#363023" transform="translate(306.37890625,203.61181640625)"/>
<path d="M0 0 C0.99 0 1.98 0 3 0 C4.33333333 1.33333333 5.66666667 2.66666667 7 4 C10.43003176 5.63996246 13.29797128 6.27477195 17.08203125 6.4140625 C18.47905273 6.47207031 18.47905273 6.47207031 19.90429688 6.53125 C20.86400391 6.5621875 21.82371094 6.593125 22.8125 6.625 C23.79154297 6.66367188 24.77058594 6.70234375 25.77929688 6.7421875 C28.18601374 6.83610816 30.59273012 6.92178201 33 7 C33 6.34 33 5.68 33 5 C40.42857143 0.57142857 40.42857143 0.57142857 44 0 C44.495 0.99 44.495 0.99 45 2 C50.92966466 5.28263661 56.24662305 5.51807124 62.9375 5.5 C64.36352539 5.54253906 64.36352539 5.54253906 65.81835938 5.5859375 C71.88590277 5.60266402 75.49125967 4.73224862 80.24829102 0.88085938 C80.82635498 0.59017578 81.40441895 0.29949219 82 0 C84.22241211 0.85351562 84.22241211 0.85351562 86 2 C86 2.66 86 3.32 86 4 C91.99338693 6.0449004 97.63323761 6.41816159 103.9375 6.625 C104.90751953 6.66367188 105.87753906 6.70234375 106.87695312 6.7421875 C109.25112076 6.83575076 111.62529492 6.92149208 114 7 C114 6.34 114 5.68 114 5 C114.94875 4.54625 115.8975 4.0925 116.875 3.625 C120.00313679 2.19761746 120.00313679 2.19761746 122 0 C125 0 125 0 127.5625 2.4375 C128.7690625 3.7059375 128.7690625 3.7059375 130 5 C132.29308963 6.14654482 133.79909656 6.19729117 136.3515625 6.31640625 C137.62773437 6.37924805 137.62773437 6.37924805 138.9296875 6.44335938 C139.81914062 6.48267578 140.70859375 6.52199219 141.625 6.5625 C142.97078125 6.62727539 142.97078125 6.62727539 144.34375 6.69335938 C146.56234283 6.79956861 148.7810488 6.90161194 151 7 C151.02312283 18.06534858 151.04091478 29.13069145 151.05181217 40.19605923 C151.05704113 45.33359566 151.06413901 50.47111563 151.07543945 55.60864258 C151.08626787 60.5623141 151.09227674 65.51596974 151.09487724 70.46965218 C151.09673157 72.36397616 151.10035234 74.25829924 151.10573006 76.1526165 C151.11293989 78.79634386 151.11399097 81.44000471 151.11352539 84.08374023 C151.11712067 84.87495773 151.12071594 85.66617523 151.12442017 86.48136902 C151.11405216 91.88594784 151.11405216 91.88594784 150 93 C147.76205348 93.09924517 145.52090765 93.12632428 143.28076172 93.12698364 C142.57007475 93.12854363 141.85938778 93.13010362 141.12716484 93.13171089 C138.7279851 93.13572329 136.3288678 93.13253033 133.9296875 93.12939453 C132.21689822 93.13074847 130.50410923 93.13252835 128.7913208 93.13470459 C124.12616518 93.13927985 119.46103157 93.13748898 114.79587555 93.1343255 C109.92495156 93.13180238 105.05402952 93.13413931 100.18310547 93.13571167 C92.00162414 93.13753351 83.82015183 93.13512669 75.63867188 93.13037109 C66.16550665 93.12492845 56.69236293 93.12669109 47.21919823 93.1321975 C39.10118106 93.13672823 30.98317038 93.13737937 22.86515236 93.13475883 C18.00984977 93.13319583 13.15455732 93.1330029 8.29925537 93.13629532 C3.7357151 93.13917346 -0.82779729 93.13719941 -5.39133453 93.13140106 C-7.07119958 93.13007315 -8.75106695 93.1304681 -10.43093109 93.13266373 C-12.71424018 93.13537404 -14.9974585 93.1319956 -17.28076172 93.12698364 C-18.56167694 93.12660662 -19.84259216 93.12622959 -21.162323 93.12584114 C-24 93 -24 93 -25 92 C-25.09511266 89.35261911 -25.12555635 86.73140999 -25.11352539 84.08374023 C-25.11367142 83.25454071 -25.11381744 82.42534119 -25.1139679 81.5710144 C-25.11326851 78.81684802 -25.10547493 76.06274839 -25.09765625 73.30859375 C-25.09579216 71.40430234 -25.09436822 69.50001045 -25.09336853 67.59571838 C-25.08954263 62.57332037 -25.07971173 57.55095108 -25.06866455 52.52856445 C-25.05845198 47.4077188 -25.05387124 42.28686852 -25.04882812 37.16601562 C-25.03808953 27.11066443 -25.02101224 17.0553346 -25 7 C-23.90228271 6.95029053 -22.80456543 6.90058105 -21.67358398 6.84936523 C-20.21856448 6.77371126 -18.76356888 6.69759644 -17.30859375 6.62109375 C-16.5868396 6.58963257 -15.86508545 6.55817139 -15.12145996 6.52575684 C-9.53031537 6.21788497 -5.71579714 5.17594502 -1 2 C-0.67 1.34 -0.34 0.68 0 0 Z M1 11 C0.13375 12.3921875 0.13375 12.3921875 -0.75 13.8125 C-3.11167173 17.15820162 -4.35337628 18.28187921 -8 20 C-10.64560328 20.33761883 -13.10234825 20.55357972 -15.75 20.625 C-20.23742905 20.39541275 -20.23742905 20.39541275 -24 22 C-24.09952293 24.14200324 -24.12799679 26.28732705 -24.12939453 28.43164062 C-24.13114685 29.10317673 -24.13289917 29.77471283 -24.13470459 30.46659851 C-24.1391223 32.69650828 -24.13618542 34.92633936 -24.1328125 37.15625 C-24.13348556 38.69942236 -24.13445561 40.24259461 -24.13571167 41.7857666 C-24.13718853 45.0240174 -24.13503447 48.26224067 -24.13037109 51.50048828 C-24.1246738 55.66042523 -24.12795287 59.82029766 -24.13394356 63.98023224 C-24.13754949 67.16799408 -24.13641044 70.35574051 -24.13381577 73.54350281 C-24.13314658 75.07777412 -24.13397461 76.61204682 -24.13629532 78.14631653 C-24.13882238 80.28703541 -24.13498054 82.42764842 -24.12939453 84.56835938 C-24.12859894 85.78890015 -24.12780334 87.00944092 -24.12698364 88.26696777 C-24.31149888 90.91300985 -24.31149888 90.91300985 -23 92 C-20.78738192 92.09921401 -18.57153071 92.12632413 -16.35668945 92.12698364 C-15.30290966 92.12932363 -15.30290966 92.12932363 -14.22784138 92.13171089 C-11.85630046 92.1357232 -9.48482273 92.13253036 -7.11328125 92.12939453 C-5.42019615 92.13074847 -3.72711134 92.13252836 -2.0340271 92.13470459 C2.57741131 92.13927981 7.18882745 92.137489 11.80026627 92.1343255 C16.61513583 92.13180236 21.43000342 92.13413931 26.24487305 92.13571167 C34.33219751 92.1375335 42.41951286 92.13512671 50.50683594 92.13037109 C59.8709381 92.12492845 69.2350185 92.1266911 78.59912014 92.1321975 C86.62371985 92.13672825 94.64831298 92.13737936 102.67291355 92.13475883 C107.47232482 92.13319585 112.27172585 92.13300287 117.07113647 92.13629532 C121.58214721 92.13917349 126.09312975 92.13719935 130.60413742 92.13140106 C132.26465177 92.13007317 133.92516848 92.13046807 135.58568192 92.13266373 C137.84271702 92.1353741 140.09966029 92.13199552 142.35668945 92.12698364 C143.62285599 92.12660662 144.88902252 92.12622959 146.19355774 92.12584114 C148.90439094 92.32051642 148.90439094 92.32051642 150 91 C150.09952293 88.85799676 150.12799679 86.71267295 150.12939453 84.56835938 C150.13114685 83.89682327 150.13289917 83.22528717 150.13470459 82.53340149 C150.1391223 80.30349172 150.13618542 78.07366064 150.1328125 75.84375 C150.13348556 74.30057764 150.13445561 72.75740539 150.13571167 71.2142334 C150.13718853 67.9759826 150.13503447 64.73775933 150.13037109 61.49951172 C150.1246738 57.33957477 150.12795287 53.17970234 150.13394356 49.01976776 C150.13754949 45.83200592 150.13641044 42.64425949 150.13381577 39.45649719 C150.13314658 37.92222588 150.13397461 36.38795318 150.13629532 34.85368347 C150.13882238 32.71296459 150.13498054 30.57235158 150.12939453 28.43164062 C150.12859894 27.21109985 150.12780334 25.99055908 150.12698364 24.73303223 C150.31149888 22.08699015 150.31149888 22.08699015 149 21 C145.72098433 20.82980888 142.44905893 20.70301263 139.16601562 20.65820312 C134.04122187 20.45472563 131.09817185 19.31872758 127 16 C124.625 13.25 124.625 13.25 123 11 C122.68546875 11.48210937 122.3709375 11.96421875 122.046875 12.4609375 C121.61890625 13.09257812 121.1909375 13.72421875 120.75 14.375 C120.33234375 15.00148437 119.9146875 15.62796875 119.484375 16.2734375 C117.22785895 18.89812196 115.04119128 19.8805608 111.60571289 20.2746582 C108.75753427 20.30291552 105.91083878 20.32174185 103.0625 20.3125 C102.07314453 20.32861328 101.08378906 20.34472656 100.06445312 20.36132812 C90.91567515 20.36748063 90.91567515 20.36748063 87 17 C84.6875 13.8125 84.6875 13.8125 83 11 C82.401875 11.763125 81.80375 12.52625 81.1875 13.3125 C76.76595745 18.74468085 76.76595745 18.74468085 73 20 C69.54605916 20.25424949 66.08732577 20.23128473 62.625 20.25 C61.67882812 20.270625 60.73265625 20.29125 59.7578125 20.3125 C50.9547826 20.36195522 50.9547826 20.36195522 47 17 C44.6875 13.8125 44.6875 13.8125 43 11 C42.608125 11.391875 42.21625 11.78375 41.8125 12.1875 C41.214375 12.785625 40.61625 13.38375 40 14 C39.154375 14.86625 38.30875 15.7325 37.4375 16.625 C32.85599908 21.08902654 28.36924493 20.25366111 22.25 20.3125 C21.26 20.34150391 20.27 20.37050781 19.25 20.40039062 C13.16335344 20.45328261 9.602538 20.11020816 5 16 C3.1875 13.25 3.1875 13.25 2 11 C1.67 11 1.34 11 1 11 Z " fill="#DAC18F" transform="translate(298,178)"/>
<path d="M0 0 C4.50716535 3.86328458 8.46109688 8.34540382 9.3482666 14.36178589 C9.46099245 17.0924622 9.45011679 19.79500178 9.390625 22.52734375 C9.38496521 23.51626114 9.37930542 24.50517853 9.37347412 25.52406311 C9.35120015 28.66238143 9.30101998 31.79953057 9.25 34.9375 C9.22992342 37.07355114 9.21167468 39.2096203 9.1953125 41.34570312 C9.15136511 46.5641966 9.0845437 51.78201474 9 57 C2.8944529 57.02464513 -3.21106551 57.04283371 -9.31665039 57.05493164 C-11.39543156 57.05997288 -13.47420916 57.06680574 -15.55297852 57.07543945 C-18.53402586 57.08751422 -21.51502649 57.09323024 -24.49609375 57.09765625 C-25.89921059 57.10539818 -25.89921059 57.10539818 -27.33067322 57.11329651 C-28.62189842 57.11340981 -28.62189842 57.11340981 -29.93920898 57.11352539 C-30.70087875 57.115746 -31.46254852 57.11796661 -32.24729919 57.12025452 C-34 57 -34 57 -35 56 C-35.29461522 50.17967115 -35.31430424 44.35661171 -35.35009766 38.52954102 C-35.366565 36.56750552 -35.3937312 34.60552768 -35.43212891 32.64379883 C-35.85151295 11.10386988 -35.85151295 11.10386988 -30 4 C-21.39029763 -4.30027624 -10.41350879 -6.62677832 0 0 Z M-7 30 C-7.28062326 32.14143741 -7.28062326 32.14143741 -7.1875 34.5 C-7.18105469 35.2940625 -7.17460937 36.088125 -7.16796875 36.90625 C-7.12675836 39.05836391 -7.12675836 39.05836391 -6 41 C-4.00045254 41.04254356 -1.99958364 41.04080783 0 41 C1.24738223 39.97378893 1.24738223 39.97378893 1.1328125 37.78515625 C1.13023437 36.88667969 1.12765625 35.98820312 1.125 35.0625 C1.12757813 34.16660156 1.13015625 33.27070313 1.1328125 32.34765625 C1.15421413 29.97844445 1.15421413 29.97844445 0 28 C-3.95457848 27.65176193 -3.95457848 27.65176193 -7 30 Z " fill="#241E12" transform="translate(429,207)"/>
<path d="M0 0 C0.33 0 0.66 0 1 0 C1.02752176 2.89590072 1.04708418 5.79152821 1.0625 8.6875 C1.07087891 9.48478516 1.07925781 10.28207031 1.08789062 11.10351562 C1.10586556 15.65117365 0.92987202 20.11500045 0.51953125 24.64453125 C-0.0008412 30.88945988 -0.13113191 37.10999602 -0.2109375 43.375 C-0.22522293 44.39523758 -0.23950836 45.41547516 -0.25422668 46.46662903 C-0.31215197 50.72982654 -0.36684526 54.99288904 -0.40136719 59.25634766 C-0.42891729 62.40038459 -0.47471762 65.54372944 -0.5234375 68.6875 C-0.52669037 69.64897949 -0.52994324 70.61045898 -0.53329468 71.60107422 C-0.6916531 80.1911283 -0.6916531 80.1911283 -4 84 C-8.16450466 86.81439997 -12.58787047 86.33088374 -17.4375 86.3125 C-18.7069043 86.33666992 -18.7069043 86.33666992 -20.00195312 86.36132812 C-24.79459925 86.36508118 -28.14898318 86.18864192 -32 83 C-32.8125 80.8125 -32.8125 80.8125 -33 79 C-33.66 79 -34.32 79 -35 79 C-36.15552288 26.18727135 -36.15552288 26.18727135 -30 9 C-29.34 8.34 -28.68 7.68 -28 7 C-28.70221638 14.08868952 -29.81100702 21.05181707 -31.0625 28.0625 C-31.701875 31.671875 -32.34125 35.28125 -33 39 C-22.77 39.33 -12.54 39.66 -2 40 C-1.855625 36.37 -1.71125 32.74 -1.5625 29 C-1.1683025 19.32304473 -0.66781214 9.66196289 0 0 Z " fill="#E0C690" transform="translate(338,92)"/>
<path d="M0 0 C0.33 0 0.66 0 1 0 C4.3917714 12.82907897 4.35377076 25.24564027 4.1875 38.4375 C4.17241597 40.5370997 4.15873419 42.63670997 4.14648438 44.73632812 C4.1137965 49.82448482 4.0622224 54.9121223 4 60 C3.34 60 2.68 60 2 60 C1.690625 60.639375 1.38125 61.27875 1.0625 61.9375 C0 64 0 64 -1 65 C-4.57543444 65.28052624 -8.1648749 65.23184747 -11.75 65.25 C-13.25433594 65.2809375 -13.25433594 65.2809375 -14.7890625 65.3125 C-24.11577234 65.36197857 -24.11577234 65.36197857 -28 62 C-29.71802382 58.56395235 -29.1196618 54.61561104 -29.09765625 50.8359375 C-29.0962413 49.92872955 -29.09482635 49.02152161 -29.09336853 48.08682251 C-29.08776096 45.18284845 -29.07520718 42.27895085 -29.0625 39.375 C-29.05748598 37.40885528 -29.0529229 35.44270935 -29.04882812 33.4765625 C-29.03863899 28.65098834 -29.01906507 23.82558 -29 19 C-18.44 19 -7.88 19 3 19 C2.01 14.71 1.02 10.42 0 6 C0 4.02 0 2.04 0 0 Z " fill="#E6CA92" transform="translate(414,113)"/>
<path d="M0 0 C0.74507813 0.00902344 1.49015625 0.01804687 2.2578125 0.02734375 C4.08868059 0.05081642 5.91938238 0.08668475 7.75 0.125 C7.75 0.785 7.75 1.445 7.75 2.125 C9.07 2.785 10.39 3.445 11.75 4.125 C11.75 4.785 11.75 5.445 11.75 6.125 C12.41 6.125 13.07 6.125 13.75 6.125 C17.8413241 18.39897229 15.82102692 34.48220814 15.75 47.125 C4.86 47.125 -6.03 47.125 -17.25 47.125 C-17.270625 43.928125 -17.29125 40.73125 -17.3125 37.4375 C-17.321604 36.43887939 -17.33070801 35.44025879 -17.34008789 34.41137695 C-17.34258545 33.61175537 -17.34508301 32.81213379 -17.34765625 31.98828125 C-17.35289307 31.17657471 -17.35812988 30.36486816 -17.36352539 29.52856445 C-17.24282187 26.97302429 -16.77390393 24.62596652 -16.25 22.125 C-16.02688727 18.32382009 -15.87114992 14.52368216 -15.7265625 10.71875 C-15.14564076 6.33802866 -14.10573704 3.57316862 -10.578125 0.8203125 C-7.07618761 -0.22556813 -3.6162403 -0.08305852 0 0 Z " fill="#644811" transform="translate(361.25,85.875)"/>
<path d="M0 0 C2.07886827 1.53612112 2.89132499 2.37728986 3.33911133 4.94311523 C3.16470261 10.40241409 2.60681942 15.6792216 1.6875 21.0625 C1.56955078 21.79404297 1.45160156 22.52558594 1.33007812 23.27929688 C0.02670858 31.21314122 -1.517914 39.09554135 -3 47 C-14.22 47 -25.44 47 -37 47 C-36.25674871 41.79724098 -35.56874825 38.40128107 -33.75 33.6875 C-31.92206433 28.81821266 -30.48049508 24.05070673 -29.27172852 18.99487305 C-25.954187 5.53754941 -25.954187 5.53754941 -20.7890625 1.16015625 C-14.33396607 -1.52494689 -6.80246907 -0.98908304 0 0 Z " fill="#644811" transform="translate(300,86)"/>
<path d="M0 0 C1.07991211 0.00314209 1.07991211 0.00314209 2.18164062 0.00634766 C8.13259694 0.18368507 11.18233694 1.22895378 15.25 5.5 C15.25 6.16 15.25 6.82 15.25 7.5 C15.91 7.5 16.57 7.5 17.25 7.5 C17.38535156 8.11101562 17.52070313 8.72203125 17.66015625 9.3515625 C19.62378129 17.69990848 22.20758321 25.79681927 24.91235352 33.93212891 C25.21326904 34.85171387 25.51418457 35.77129883 25.82421875 36.71875 C26.09838623 37.54310547 26.37255371 38.36746094 26.6550293 39.21679688 C27.25 41.5 27.25 41.5 27.25 45.5 C16.69 45.5 6.13 45.5 -4.75 45.5 C-6.0625 38.5 -6.0625 38.5 -6.50048828 36.14208984 C-7.17818001 32.49744122 -7.87461797 28.85858624 -8.6171875 25.2265625 C-12.43914366 6.31312271 -12.43914366 6.31312271 -9.7109375 1.76953125 C-6.66296921 -0.20375499 -3.51708452 -0.02954862 0 0 Z " fill="#674B12" transform="translate(429.75,86.5)"/>
<path d="M0 0 C2.05078125 0.03255208 4.1015625 0.06510417 6.15234375 0.09765625 C14.78332325 16.8060845 14.78332325 16.8060845 17.15234375 25.09765625 C17.81234375 25.09765625 18.47234375 25.09765625 19.15234375 25.09765625 C19.52359375 23.88078125 19.89484375 22.66390625 20.27734375 21.41015625 C22.72743076 14.03644942 25.83575439 6.5725403 30.15234375 0.09765625 C32.89509455 -0.37349113 35.34793272 -0.08040159 38.15234375 0.09765625 C39.88527355 1.83058605 39.28054421 4.05979961 39.29129028 6.36914062 C39.28926605 7.10455078 39.28724182 7.83996094 39.28515625 8.59765625 C39.28611298 9.34853516 39.2870697 10.09941406 39.28805542 10.87304688 C39.28873713 12.46354252 39.28688347 14.05404092 39.28271484 15.64453125 C39.27736642 18.0873028 39.28266009 20.52989046 39.2890625 22.97265625 C39.28840172 24.51432332 39.28712055 26.05599028 39.28515625 27.59765625 C39.28718048 28.33306641 39.28920471 29.06847656 39.29129028 29.82617188 C39.26729536 34.98270464 39.26729536 34.98270464 38.15234375 36.09765625 C35.48175524 36.23880786 32.82802137 36.14012732 30.15234375 36.09765625 C29.82234375 31.80765625 29.49234375 27.51765625 29.15234375 23.09765625 C27.17234375 27.38765625 25.19234375 31.67765625 23.15234375 36.09765625 C19.85234375 36.09765625 16.55234375 36.09765625 13.15234375 36.09765625 C11.17234375 31.80765625 9.19234375 27.51765625 7.15234375 23.09765625 C6.82234375 27.38765625 6.49234375 31.67765625 6.15234375 36.09765625 C0 36.1953125 0 36.1953125 -1.84765625 36.09765625 C-3.58058605 34.36472645 -2.97585671 32.13551289 -2.98660278 29.82617188 C-2.98457855 29.09076172 -2.98255432 28.35535156 -2.98046875 27.59765625 C-2.98142548 26.84677734 -2.9823822 26.09589844 -2.98336792 25.32226562 C-2.98404963 23.73176998 -2.98219597 22.14127158 -2.97802734 20.55078125 C-2.97267892 18.1080097 -2.97797259 15.66542204 -2.984375 13.22265625 C-2.98371422 11.68098918 -2.98243305 10.13932222 -2.98046875 8.59765625 C-2.98249298 7.86224609 -2.98451721 7.12683594 -2.98660278 6.36914062 C-2.95769265 0.15632625 -2.95769265 0.15632625 0 0 Z " fill="#EED39E" transform="translate(313.84765625,324.90234375)"/>
<path d="M0 0 C2.05078125 0.03255208 4.1015625 0.06510417 6.15234375 0.09765625 C9.10229522 5.07733097 11.60862772 10.09916998 13.90234375 15.41015625 C14.21816406 16.12494141 14.53398438 16.83972656 14.859375 17.57617188 C17.15234375 22.84205898 17.15234375 22.84205898 17.15234375 25.09765625 C17.81234375 25.09765625 18.47234375 25.09765625 19.15234375 25.09765625 C19.48234375 23.94265625 19.81234375 22.78765625 20.15234375 21.59765625 C22.62788956 14.07441215 26.52715458 7.11554027 30.15234375 0.09765625 C36.3046875 0 36.3046875 0 38.15234375 0.09765625 C39.88527355 1.83058605 39.28054421 4.05979961 39.29129028 6.36914062 C39.28926605 7.10455078 39.28724182 7.83996094 39.28515625 8.59765625 C39.28611298 9.34853516 39.2870697 10.09941406 39.28805542 10.87304688 C39.28873713 12.46354252 39.28688347 14.05404092 39.28271484 15.64453125 C39.27736642 18.0873028 39.28266009 20.52989046 39.2890625 22.97265625 C39.28840172 24.51432332 39.28712055 26.05599028 39.28515625 27.59765625 C39.28718048 28.33306641 39.28920471 29.06847656 39.29129028 29.82617188 C39.26729536 34.98270464 39.26729536 34.98270464 38.15234375 36.09765625 C35.48175524 36.23880786 32.82802137 36.14012732 30.15234375 36.09765625 C29.65734375 30.15765625 29.65734375 30.15765625 29.15234375 24.09765625 C27.17234375 28.05765625 25.19234375 32.01765625 23.15234375 36.09765625 C19.85234375 36.09765625 16.55234375 36.09765625 13.15234375 36.09765625 C11.17234375 31.80765625 9.19234375 27.51765625 7.15234375 23.09765625 C6.82234375 27.38765625 6.49234375 31.67765625 6.15234375 36.09765625 C0 36.1953125 0 36.1953125 -1.84765625 36.09765625 C-3.58058605 34.36472645 -2.97585671 32.13551289 -2.98660278 29.82617188 C-2.98457855 29.09076172 -2.98255432 28.35535156 -2.98046875 27.59765625 C-2.98142548 26.84677734 -2.9823822 26.09589844 -2.98336792 25.32226562 C-2.98404963 23.73176998 -2.98219597 22.14127158 -2.97802734 20.55078125 C-2.97267892 18.1080097 -2.97797259 15.66542204 -2.984375 13.22265625 C-2.98371422 11.68098918 -2.98243305 10.13932222 -2.98046875 8.59765625 C-2.98249298 7.86224609 -2.98451721 7.12683594 -2.98660278 6.36914062 C-2.95769265 0.15632625 -2.95769265 0.15632625 0 0 Z " fill="#EDD39D" transform="translate(107.84765625,324.90234375)"/>
<path d="M0 0 C1.04185204 0.00067978 1.04185204 0.00067978 2.10475159 0.00137329 C2.83320282 -0.00198532 3.56165405 -0.00534393 4.31217957 -0.00880432 C6.73206769 -0.01834164 9.15188683 -0.02025882 11.5717926 -0.02133179 C13.24709095 -0.02454245 14.92238902 -0.02790637 16.59768677 -0.03141785 C20.11420848 -0.03741609 23.63070559 -0.03925704 27.14723206 -0.03866577 C31.66134989 -0.03856411 36.17531057 -0.05221715 40.68939114 -0.06943798 C44.15084564 -0.08053674 47.6122619 -0.08258564 51.07373238 -0.08205605 C52.73836369 -0.08323935 54.4029959 -0.08768059 56.06760979 -0.09538841 C58.3926035 -0.10514564 60.71725277 -0.10232737 63.04225159 -0.09628296 C63.73479538 -0.10190247 64.42733917 -0.10752197 65.14086914 -0.11331177 C69.90988304 -0.08167885 69.90988304 -0.08167885 72.13819885 2.14663696 C72.3134494 4.94348493 72.36963074 7.63991776 72.33351135 10.43569946 C72.33068146 11.25412323 72.32785156 12.072547 72.32493591 12.91577148 C72.31372417 15.53454089 72.28861814 18.1529706 72.26319885 20.77163696 C72.25317032 22.54506953 72.24404425 24.31850745 72.2358551 26.09194946 C72.21378163 30.44364322 72.1792453 34.79508246 72.13819885 39.14663696 C71.47819885 38.81663696 70.81819885 38.48663696 70.13819885 38.14663696 C70.46819885 29.56663696 70.79819885 20.98663696 71.13819885 12.14663696 C46.05819885 12.14663696 20.97819885 12.14663696 -4.86180115 12.14663696 C-4.86180115 20.72663696 -4.86180115 29.30663696 -4.86180115 38.14663696 C-5.19180115 38.14663696 -5.52180115 38.14663696 -5.86180115 38.14663696 C-5.88645042 32.89558254 -5.90463683 27.64456151 -5.91673279 22.39346313 C-5.92177333 20.60569675 -5.92860569 18.81793452 -5.9372406 17.03018188 C-5.94931845 14.46612528 -5.95503209 11.90212299 -5.9594574 9.33804321 C-5.96461868 8.53387466 -5.96977997 7.72970612 -5.97509766 6.90116882 C-5.9752933 4.98261981 -5.92382097 3.06418328 -5.86180115 1.14663696 C-4.20568132 -0.50948286 -2.21324774 0.01499409 0 0 Z " fill="#E3C993" transform="translate(302.86180114746094,211.85336303710938)"/>
<path d="M0 0 C2.79589195 0.03618066 3.90547522 0.20839338 5.95996094 2.15136719 C7.51010985 4.3600964 8.86220346 6.60612407 10.1796875 8.9609375 C11.11319016 10.5320786 12.04802696 12.10242799 12.984375 13.671875 C13.38382324 14.3736084 13.78327148 15.0753418 14.19482422 15.79833984 C15.30536809 17.73845721 15.30536809 17.73845721 17.3046875 19.5859375 C17.29308594 18.54953125 17.28148437 17.513125 17.26953125 16.4453125 C17.26014913 15.07552264 17.25104938 13.70573082 17.2421875 12.3359375 C17.23380859 11.65402344 17.22542969 10.97210938 17.21679688 10.26953125 C17.20040358 6.89251196 17.24839982 3.81302111 18.3046875 0.5859375 C20.63763525 0.54352027 22.97171317 0.54500813 25.3046875 0.5859375 C26.3046875 1.5859375 26.3046875 1.5859375 26.41821289 4.91235352 C26.41805379 6.38819306 26.41236064 7.86403819 26.40234375 9.33984375 C26.4009288 10.11529037 26.39951385 10.890737 26.39805603 11.68968201 C26.39244095 14.17597244 26.37988596 16.6621741 26.3671875 19.1484375 C26.36217444 20.83007683 26.3576112 22.51171756 26.35351562 24.19335938 C26.34246663 28.32425316 26.32519195 32.45508026 26.3046875 36.5859375 C23.26221241 36.84796885 20.34077875 36.9618093 17.3046875 36.5859375 C15.0703125 34.6796875 15.0703125 34.6796875 13.5546875 32.0859375 C13.00167969 31.18101562 12.44867188 30.27609375 11.87890625 29.34375 C11.35941406 28.43367188 10.83992187 27.52359375 10.3046875 26.5859375 C9.33008674 25.04138034 8.351446 23.49935834 7.3671875 21.9609375 C6.6865625 20.8471875 6.0059375 19.7334375 5.3046875 18.5859375 C5.24410156 19.80152344 5.18351563 21.01710938 5.12109375 22.26953125 C5.03670418 23.85417978 4.9520554 25.43881452 4.8671875 27.0234375 C4.80821289 28.22709961 4.80821289 28.22709961 4.74804688 29.45507812 C4.41796875 35.47265625 4.41796875 35.47265625 3.3046875 36.5859375 C0.63409899 36.72708911 -2.01963488 36.62840857 -4.6953125 36.5859375 C-4.71996348 31.61971401 -4.73814899 26.65352584 -4.75024414 21.68725586 C-4.7552844 19.99649434 -4.76211655 18.30573721 -4.77075195 16.61499023 C-4.78283107 14.18993043 -4.78854373 11.76492806 -4.79296875 9.33984375 C-4.79813004 8.57942276 -4.80329132 7.81900177 -4.80860901 7.03553772 C-4.80880488 5.2186118 -4.75728527 3.40180623 -4.6953125 1.5859375 C-3.6953125 0.5859375 -3.6953125 0.5859375 0 0 Z " fill="#EDD29B" transform="translate(197.6953125,324.4140625)"/>
<path d="M0 0 C0.80373047 -0.020625 1.60746094 -0.04125 2.43554688 -0.0625 C7.48892861 -0.09555565 10.93615717 0.44482494 15.3125 3.25 C17.75590191 6.18208229 18.27909534 7.93822321 18.6875 11.75 C18.28585498 15.4986869 17.6529622 17.32442224 15.3125 20.25 C14.00020535 20.95718101 12.66853679 21.63081791 11.3125 22.25 C11.745625 23.00925781 12.17875 23.76851563 12.625 24.55078125 C13.181875 25.54464844 13.73875 26.53851563 14.3125 27.5625 C14.869375 28.54863281 15.42625 29.53476562 16 30.55078125 C17.3125 33.25 17.3125 33.25 17.3125 36.25 C12.29118186 37.30711961 12.29118186 37.30711961 9.3125 36.25 C7.08901433 33.2955653 5.48771417 30.28754896 3.85546875 26.97265625 C2.5474563 23.95640523 2.5474563 23.95640523 -0.6875 23.25 C-0.67589844 24.10464844 -0.66429687 24.95929688 -0.65234375 25.83984375 C-0.64332031 26.94457031 -0.63429688 28.04929687 -0.625 29.1875 C-0.61339844 30.28964844 -0.60179687 31.39179688 -0.58984375 32.52734375 C-0.6875 35.25 -0.6875 35.25 -1.6875 36.25 C-5.1875 36.375 -5.1875 36.375 -8.6875 36.25 C-10.4204298 34.5170702 -9.81570046 32.28785664 -9.82644653 29.97851562 C-9.8244223 29.24310547 -9.82239807 28.50769531 -9.8203125 27.75 C-9.82126923 26.99912109 -9.82222595 26.24824219 -9.82321167 25.47460938 C-9.82389338 23.88411373 -9.82203972 22.29361533 -9.81787109 20.703125 C-9.81252267 18.26035345 -9.81781634 15.81776579 -9.82421875 13.375 C-9.82355797 11.83333293 -9.8222768 10.29166597 -9.8203125 8.75 C-9.82233673 8.01458984 -9.82436096 7.27917969 -9.82644653 6.52148438 C-9.79030885 -1.24453849 -6.92116921 0.04335893 0 0 Z M-0.6875 8.25 C-0.6875 10.56 -0.6875 12.87 -0.6875 15.25 C0.79156892 15.27689216 2.27077483 15.29634621 3.75 15.3125 C4.98556641 15.32990234 4.98556641 15.32990234 6.24609375 15.34765625 C8.30413938 15.48267348 8.30413938 15.48267348 9.3125 14.25 C9.35313832 12.58382885 9.355221 10.91611905 9.3125 9.25 C7.02544169 8.10647084 5.71985238 8.14665561 3.1875 8.1875 C1.269375 8.2184375 1.269375 8.2184375 -0.6875 8.25 Z " fill="#EED39E" transform="translate(408.6875,324.75)"/>
<path d="M0 0 C2.35448675 -0.05454409 4.70767875 -0.0939279 7.0625 -0.125 C9.02896484 -0.15980469 9.02896484 -0.15980469 11.03515625 -0.1953125 C18.1550862 0.15542297 23.02852609 1.80255 28 7 C30.69362314 11.82016772 31.60128986 16.48817632 31 22 C29.2204546 27.96671106 26.18046137 31.68004841 21 35 C18.23613016 35.84351636 15.77280887 36.11949098 12.890625 36.09765625 C12.13652344 36.09443359 11.38242188 36.09121094 10.60546875 36.08789062 C9.82816406 36.07951172 9.05085937 36.07113281 8.25 36.0625 C7.45722656 36.05798828 6.66445312 36.05347656 5.84765625 36.04882812 C3.89840492 36.03708565 1.94919262 36.01915146 0 36 C-0.16797178 31.51618182 -0.32849276 27.03217687 -0.48217773 22.54785156 C-0.53547812 21.02303937 -0.59079772 19.49829635 -0.64819336 17.97363281 C-0.73043951 15.77944855 -0.80537075 13.58511635 -0.87890625 11.390625 C-0.91945885 10.37165131 -0.91945885 10.37165131 -0.96083069 9.33209229 C-1.06392959 6.04687715 -1.03583771 3.13890215 0 0 Z M8 8 C8 14.6 8 21.2 8 28 C14.75991682 28.50012544 14.75991682 28.50012544 20 26 C22.54594764 22.56297069 22.36399464 19.14953888 22 15 C20.74544028 12.17724064 19.71615278 10.53711459 17.25 8.6875 C14.27637171 7.65907838 14.27637171 7.65907838 8 8 Z " fill="#EDD29C" transform="translate(234,325)"/>
<path d="M0 0 C1.5631897 0.00785522 1.5631897 0.00785522 3.15795898 0.01586914 C4.28266602 0.0190918 5.40737305 0.02231445 6.56616211 0.02563477 C7.75016602 0.03401367 8.93416992 0.04239258 10.15405273 0.05102539 C11.34192383 0.05553711 12.52979492 0.06004883 13.75366211 0.06469727 C16.69967499 0.07652864 19.64558954 0.09301252 22.59155273 0.11352539 C22.97218494 2.43961109 23.30425218 4.77407803 23.59155273 7.11352539 C22.59155273 8.11352539 22.59155273 8.11352539 18.77514648 8.21118164 C17.19308592 8.20450628 15.61104115 8.19254415 14.02905273 8.17602539 C13.22274414 8.17151367 12.41643555 8.16700195 11.58569336 8.16235352 C9.58761517 8.15053057 7.5895749 8.13259453 5.59155273 8.11352539 C5.92155273 9.76352539 6.25155273 11.41352539 6.59155273 13.11352539 C10.88155273 13.44352539 15.17155273 13.77352539 19.59155273 14.11352539 C19.59155273 16.42352539 19.59155273 18.73352539 19.59155273 21.11352539 C13.15655273 21.60852539 13.15655273 21.60852539 6.59155273 22.11352539 C6.26155273 24.09352539 5.93155273 26.07352539 5.59155273 28.11352539 C11.20155273 28.11352539 16.81155273 28.11352539 22.59155273 28.11352539 C22.59155273 30.75352539 22.59155273 33.39352539 22.59155273 36.11352539 C18.44573387 36.1423929 14.29994057 36.16027867 10.15405273 36.17602539 C8.37804687 36.18859375 8.37804687 36.18859375 6.56616211 36.20141602 C5.44145508 36.20463867 4.31674805 36.20786133 3.15795898 36.21118164 C1.59476929 36.21903687 1.59476929 36.21903687 0 36.22705078 C-2.40844727 36.11352539 -2.40844727 36.11352539 -3.40844727 35.11352539 C-3.50931938 32.60428386 -3.54816759 30.12316155 -3.54125977 27.61352539 C-3.54221649 26.86264648 -3.54317322 26.11176758 -3.54415894 25.33813477 C-3.54484065 23.74763912 -3.54298698 22.15714072 -3.53881836 20.56665039 C-3.53346993 18.12387884 -3.53876361 15.68129118 -3.54516602 13.23852539 C-3.54450523 11.69685832 -3.54322407 10.15519136 -3.54125977 8.61352539 C-3.543284 7.87811523 -3.54530823 7.14270508 -3.5473938 6.38500977 C-3.51845413 0.16584705 -3.51845413 0.16584705 0 0 Z " fill="#EED39E" transform="translate(475.408447265625,324.886474609375)"/>
<path d="M0 0 C1.5631897 0.00785522 1.5631897 0.00785522 3.15795898 0.01586914 C4.28266602 0.0190918 5.40737305 0.02231445 6.56616211 0.02563477 C7.75016602 0.03401367 8.93416992 0.04239258 10.15405273 0.05102539 C11.34192383 0.05553711 12.52979492 0.06004883 13.75366211 0.06469727 C16.69967499 0.07652864 19.64558954 0.09301252 22.59155273 0.11352539 C22.59155273 2.75352539 22.59155273 5.39352539 22.59155273 8.11352539 C16.98155273 8.11352539 11.37155273 8.11352539 5.59155273 8.11352539 C5.92155273 9.76352539 6.25155273 11.41352539 6.59155273 13.11352539 C7.44620117 13.10192383 8.30084961 13.09032227 9.18139648 13.07836914 C10.28612305 13.0693457 11.39084961 13.06032227 12.52905273 13.05102539 C13.63120117 13.03942383 14.73334961 13.02782227 15.86889648 13.01586914 C18.59155273 13.11352539 18.59155273 13.11352539 19.59155273 14.11352539 C19.63248211 16.44649972 19.63396997 18.78057764 19.59155273 21.11352539 C16.75598687 22.53130832 14.60068213 21.97610161 11.46655273 21.67602539 C10.37084961 21.57418945 9.27514648 21.47235352 8.14624023 21.36743164 C7.30319336 21.28364258 6.46014648 21.19985352 5.59155273 21.11352539 C5.59155273 23.42352539 5.59155273 25.73352539 5.59155273 28.11352539 C11.20155273 28.11352539 16.81155273 28.11352539 22.59155273 28.11352539 C22.59155273 30.75352539 22.59155273 33.39352539 22.59155273 36.11352539 C18.44573387 36.1423929 14.29994057 36.16027867 10.15405273 36.17602539 C8.37804687 36.18859375 8.37804687 36.18859375 6.56616211 36.20141602 C5.44145508 36.20463867 4.31674805 36.20786133 3.15795898 36.21118164 C1.59476929 36.21903687 1.59476929 36.21903687 0 36.22705078 C-2.40844727 36.11352539 -2.40844727 36.11352539 -3.40844727 35.11352539 C-3.50931938 32.60428386 -3.54816759 30.12316155 -3.54125977 27.61352539 C-3.54221649 26.86264648 -3.54317322 26.11176758 -3.54415894 25.33813477 C-3.54484065 23.74763912 -3.54298698 22.15714072 -3.53881836 20.56665039 C-3.53346993 18.12387884 -3.53876361 15.68129118 -3.54516602 13.23852539 C-3.54450523 11.69685832 -3.54322407 10.15519136 -3.54125977 8.61352539 C-3.543284 7.87811523 -3.54530823 7.14270508 -3.5473938 6.38500977 C-3.51845413 0.16584705 -3.51845413 0.16584705 0 0 Z " fill="#EED39D" transform="translate(686.408447265625,324.886474609375)"/>
<path d="M0 0 C3.5 0.125 3.5 0.125 4.5 1.125 C4.73363881 2.97391946 4.91303635 4.82988031 5.0625 6.6875 C5.14628906 7.69941406 5.23007812 8.71132813 5.31640625 9.75390625 C5.37699219 10.53636719 5.43757813 11.31882812 5.5 12.125 C6.05429687 11.42632812 6.60859375 10.72765625 7.1796875 10.0078125 C7.90414063 9.09773438 8.62859375 8.18765625 9.375 7.25 C10.09429687 6.34507812 10.81359375 5.44015625 11.5546875 4.5078125 C13.5 2.125 13.5 2.125 15.5 0.125 C18.18839385 -0.14491906 20.79141936 0.03762643 23.5 0.125 C22.83474193 5.36082741 18.7286094 8.61827668 15.3359375 12.37109375 C13.30579757 14.90709826 13.30579757 14.90709826 13.37890625 17.5234375 C15.00419303 21.29500891 17.43989436 24.17912472 20.0625 27.3125 C25.5 33.88197026 25.5 33.88197026 25.5 36.125 C21.98403466 36.77343623 18.99362451 36.96863092 15.5 36.125 C12.93110397 33.71665997 11.06682774 31.2235983 9.09375 28.3125 C8.5678125 27.590625 8.041875 26.86875 7.5 26.125 C6.84 26.125 6.18 26.125 5.5 26.125 C5.43941406 26.76308594 5.37882812 27.40117187 5.31640625 28.05859375 C5.23261719 28.88488281 5.14882813 29.71117187 5.0625 30.5625 C4.98128906 31.38621094 4.90007812 32.20992188 4.81640625 33.05859375 C4.5 35.125 4.5 35.125 3.5 36.125 C0.82941149 36.26615161 -1.82432238 36.16747107 -4.5 36.125 C-4.52465098 31.15877651 -4.54283649 26.19258834 -4.55493164 21.22631836 C-4.5599719 19.53555684 -4.56680405 17.84479971 -4.57543945 16.15405273 C-4.58751857 13.72899293 -4.59323123 11.30399056 -4.59765625 8.87890625 C-4.60281754 8.11848526 -4.60797882 7.35806427 -4.61329651 6.57460022 C-4.61349238 4.7576743 -4.56197277 2.94086873 -4.5 1.125 C-3.5 0.125 -3.5 0.125 0 0 Z " fill="#EED39E" transform="translate(439.5,324.875)"/>
<path d="M0 0 C2.0078125 0.42578125 2.0078125 0.42578125 3.47827148 2.00415039 C5.39685253 5.04172508 6.43537782 8.19195122 7.48828125 11.59765625 C7.70599686 12.28007385 7.92371246 12.96249146 8.14802551 13.66558838 C8.83779544 15.83340568 9.51668252 18.00445398 10.1953125 20.17578125 C10.66269584 21.65126854 11.1307872 23.12653175 11.59960938 24.6015625 C12.74389157 28.20709237 13.87842974 31.81555798 15.0078125 35.42578125 C14.0078125 36.42578125 14.0078125 36.42578125 12.16015625 36.5234375 C10.109375 36.49088542 8.05859375 36.45833333 6.0078125 36.42578125 C4.547184 33.77839209 4.0078125 32.53129791 4.0078125 29.42578125 C0.3778125 29.75578125 -3.2521875 30.08578125 -6.9921875 30.42578125 C-7.6521875 32.40578125 -8.3121875 34.38578125 -8.9921875 36.42578125 C-11.9621875 36.42578125 -14.9321875 36.42578125 -17.9921875 36.42578125 C-16.47554092 28.66850693 -14.04939748 21.3751935 -11.4296875 13.92578125 C-11.01783203 12.7346875 -10.60597656 11.54359375 -10.18164062 10.31640625 C-6.70904187 0.35897088 -6.70904187 0.35897088 0 0 Z M-1.9921875 14.42578125 C-2.6521875 16.40578125 -3.3121875 18.38578125 -3.9921875 20.42578125 C-2.6721875 20.42578125 -1.3521875 20.42578125 0.0078125 20.42578125 C-0.3221875 18.44578125 -0.6521875 16.46578125 -0.9921875 14.42578125 C-1.3221875 14.42578125 -1.6521875 14.42578125 -1.9921875 14.42578125 Z " fill="#EED39D" transform="translate(623.9921875,324.57421875)"/>
<path d="M0 0 C5.62632197 -0.71445358 5.62632197 -0.71445358 8 0 C10.45653048 3.55771984 11.89455265 7.16947848 13.26171875 11.25390625 C13.65810547 12.43791016 14.05449219 13.62191406 14.46289062 14.84179688 C14.86701172 16.06962891 15.27113281 17.29746094 15.6875 18.5625 C16.10322266 19.79419922 16.51894531 21.02589844 16.94726562 22.29492188 C17.33978516 23.47763672 17.73230469 24.66035156 18.13671875 25.87890625 C18.49467529 26.9572876 18.85263184 28.03566895 19.22143555 29.14672852 C20 32 20 32 20 36 C17.36 36 14.72 36 12 36 C11.01 34.02 10.02 32.04 9 30 C5.7 30 2.4 30 -1 30 C-1.99 31.98 -2.98 33.96 -4 36 C-6.64 36 -9.28 36 -12 36 C-11.40728146 28.88737753 -8.92353944 22.4451541 -6.5625 15.75 C-6.15451172 14.56664062 -5.74652344 13.38328125 -5.32617188 12.1640625 C-2.26681112 3.40021668 -2.26681112 3.40021668 0 0 Z M3 15 C2.67 16.65 2.34 18.3 2 20 C3.32 20 4.64 20 6 20 C5.67 18.35 5.34 16.7 5 15 C4.34 15 3.68 15 3 15 Z " fill="#EED39D" transform="translate(372,325)"/>
<path d="M0 0 C1.9453125 -0.29296875 1.9453125 -0.29296875 4.125 -0.1875 C5.40375 -0.125625 6.6825 -0.06375 8 0 C11.38942794 7.54421057 14.18424136 15.22598592 16.8125 23.0625 C17.12646729 23.9908667 17.44043457 24.9192334 17.76391602 25.87573242 C18.19982056 27.19214722 18.19982056 27.19214722 18.64453125 28.53515625 C18.90596924 29.322854 19.16740723 30.11055176 19.43676758 30.92211914 C20 33 20 33 20 36 C17.36 36 14.72 36 12 36 C11.731875 35.030625 11.46375 34.06125 11.1875 33.0625 C9.34716211 29.77428185 9.34716211 29.77428185 6.3515625 29.37890625 C3.55892004 29.14558779 0.80192703 29.00951418 -2 29 C-2.144375 29.969375 -2.28875 30.93875 -2.4375 31.9375 C-3 35 -3 35 -4 36 C-6.67058851 36.14115161 -9.32432238 36.04247107 -12 36 C-11.40728146 28.88737753 -8.92353944 22.4451541 -6.5625 15.75 C-6.15451172 14.56664062 -5.74652344 13.38328125 -5.32617188 12.1640625 C-2.26681112 3.40021668 -2.26681112 3.40021668 0 0 Z M3 14 C2.67 15.98 2.34 17.96 2 20 C2.99 20.495 2.99 20.495 4 21 C4.66 20.67 5.32 20.34 6 20 C5.34 18.02 4.68 16.04 4 14 C3.67 14 3.34 14 3 14 Z " fill="#EED39D" transform="translate(166,325)"/>
<path d="M0 0 C2.87557703 -0.08138426 5.74882262 -0.14067851 8.625 -0.1875 C9.43324219 -0.21263672 10.24148438 -0.23777344 11.07421875 -0.26367188 C17.03132312 -0.33631949 21.22991644 0.59926092 25.875 4.625 C27.65925736 8.39176554 27.76903725 11.92198594 27 16 C25.06658451 19.57052209 22.91644101 21.69451966 19 23 C15.32893957 23.13281695 11.67480286 23.04323297 8 23 C8 27.29 8 31.58 8 36 C5.36 36 2.72 36 0 36 C-0.16771068 31.35544096 -0.32825993 26.71071045 -0.48217773 22.06567383 C-0.53554679 20.48552796 -0.59087216 18.90544689 -0.64819336 17.32543945 C-0.73024686 15.05434137 -0.80526189 12.78310314 -0.87890625 10.51171875 C-0.90594131 9.80536789 -0.93297638 9.09901703 -0.96083069 8.3712616 C-1.05545931 5.26132061 -0.99373539 2.98120616 0 0 Z M8 8 C8 10.31 8 12.62 8 15 C9.45792884 15.05399736 10.91642712 15.09279177 12.375 15.125 C13.59316406 15.15980469 13.59316406 15.15980469 14.8359375 15.1953125 C17.21342243 15.21370051 17.21342243 15.21370051 19 13 C18.59471099 10.21762345 18.59471099 10.21762345 17 8 C15.48071962 7.92820036 13.95832518 7.91607993 12.4375 7.9375 C11.19806641 7.95103516 11.19806641 7.95103516 9.93359375 7.96484375 C8.97646484 7.98224609 8.97646484 7.98224609 8 8 Z " fill="#EDD29C" transform="translate(541,325)"/>
<path d="M0 0 C0.94101562 0.17144531 1.88203125 0.34289062 2.8515625 0.51953125 C5.375 1.1875 5.375 1.1875 8.375 3.1875 C7.81128586 6.45704202 6.87537734 8.01325883 4.375 10.1875 C3.529375 9.836875 2.68375 9.48625 1.8125 9.125 C-2.18849532 8.03381946 -4.62184136 8.14964406 -8.625 9.1875 C-11.84330373 11.38949729 -12.51439752 12.78933107 -13.5625 16.5625 C-13.63419226 20.72065085 -12.87803125 22.72748772 -10.625 26.1875 C-6.89435156 28.67459896 -5.04868032 28.48741053 -0.625 28.1875 C2.69686171 27.27635464 2.69686171 27.27635464 5.375 26.1875 C7.025 27.8375 8.675 29.4875 10.375 31.1875 C6.94059094 35.00351007 4.27067088 36.85742353 -0.88671875 37.4453125 C-7.00707403 37.72649268 -11.59827197 36.77137091 -16.625 33.1875 C-21.0034635 28.69381378 -22.71526787 24.58216053 -23 18.375 C-22.86232809 13.23524853 -21.86412997 9.24769077 -18.625 5.1875 C-12.82744316 0.3219095 -7.49162587 -1.4343471 0 0 Z " fill="#EED39E" transform="translate(665.625,324.8125)"/>
<path d="M0 0 C4.1117256 -0.02465746 8.22342278 -0.04283959 12.33520508 -0.05493164 C13.73495228 -0.0599708 15.1346942 -0.06680216 16.53442383 -0.07543945 C18.54245777 -0.0875232 20.55052957 -0.09269807 22.55859375 -0.09765625 C24.37315063 -0.10551147 24.37315063 -0.10551147 26.22436523 -0.11352539 C29 0 29 0 30 1 C30.125 4 30.125 4 30 7 C27.59629915 9.40370085 23.37855504 8.624605 20 9 C19.67 17.91 19.34 26.82 19 36 C16.36 36 13.72 36 11 36 C10.67 27.09 10.34 18.18 10 9 C6.7 8.67 3.4 8.34 0 8 C0 5.36 0 2.72 0 0 Z " fill="#EED29C" transform="translate(48,325)"/>
<path d="M0 0 C1.25554688 -0.00128906 2.51109375 -0.00257813 3.8046875 -0.00390625 C4.46178711 -0.00181152 5.11888672 0.0002832 5.79589844 0.00244141 C7.80411335 0.00779016 9.81210459 0.00249559 11.8203125 -0.00390625 C13.07585938 -0.00261719 14.33140625 -0.00132812 15.625 0 C16.78644531 0.00112793 17.94789063 0.00225586 19.14453125 0.00341797 C21.8125 0.1328125 21.8125 0.1328125 22.8125 1.1328125 C22.9375 4.1328125 22.9375 4.1328125 22.8125 7.1328125 C20.40879915 9.53651335 16.19105504 8.7574175 12.8125 9.1328125 C12.4825 18.0428125 12.1525 26.9528125 11.8125 36.1328125 C9.1725 36.1328125 6.5325 36.1328125 3.8125 36.1328125 C3.4825 27.2228125 3.1525 18.3128125 2.8125 9.1328125 C-0.4875 8.8028125 -3.7875 8.4728125 -7.1875 8.1328125 C-7.22991723 5.79986475 -7.22842937 3.46578683 -7.1875 1.1328125 C-5.35715945 -0.69752805 -2.45538008 0.00238453 0 0 Z " fill="#EED39C" transform="translate(511.1875,324.8671875)"/>
<path d="M0 0 C2.64 0 5.28 0 8 0 C9.20484722 5.63526965 9.1129643 11.14536115 9.0625 16.875 C9.05798828 17.84953125 9.05347656 18.8240625 9.04882812 19.828125 C9.03710906 22.21881434 9.02070219 24.6093744 9 27 C10.14339844 27.06058594 11.28679688 27.12117188 12.46484375 27.18359375 C13.95574305 27.26798428 15.44662775 27.35263302 16.9375 27.4375 C17.69224609 27.47681641 18.44699219 27.51613281 19.22460938 27.55664062 C24.88671875 27.88671875 24.88671875 27.88671875 26 29 C26.125 32 26.125 32 26 35 C25 36 25 36 22.59155273 36.11352539 C21.54942627 36.10828857 20.5072998 36.10305176 19.43359375 36.09765625 C18.42095459 36.09515869 17.40831543 36.09266113 16.36499023 36.09008789 C15.06891846 36.08098389 13.77284668 36.07187988 12.4375 36.0625 C8.333125 36.041875 4.22875 36.02125 0 36 C0 24.12 0 12.24 0 0 Z " fill="#EED39D" transform="translate(576,325)"/>
<path d="M0 0 C2.64 0 5.28 0 8 0 C8 11.88 8 23.76 8 36 C5.36 36 2.72 36 0 36 C0 24.12 0 12.24 0 0 Z " fill="#EED29C" transform="translate(273,325)"/>
<path d="M0 0 C2.64 0 5.28 0 8 0 C8 11.88 8 23.76 8 36 C5.36 36 2.72 36 0 36 C0 24.12 0 12.24 0 0 Z " fill="#EDD29B" transform="translate(33,325)"/>
<path d="M0 0 C2.64 0 5.28 0 8 0 C8 11.88 8 23.76 8 36 C5.36 36 2.72 36 0 36 C0 24.12 0 12.24 0 0 Z " fill="#EDD29A" transform="translate(15,325)"/>
<path d="M0 0 C1.8359375 0.125 1.8359375 0.125 4 1 C5.8515625 3.25 5.8515625 3.25 7.625 6 C9.76464003 9.60311903 9.76464003 9.60311903 13 12 C13.3403125 10.9790625 13.3403125 10.9790625 13.6875 9.9375 C15.35572357 6.20385676 17.55729608 3.27836579 20 0 C21.32 0.33 22.64 0.66 24 1 C24 8.26 24 15.52 24 23 C23.01 23 22.02 23 21 23 C20.67 18.38 20.34 13.76 20 9 C17.31382584 11.68617416 15.16166063 13.97367511 13 17 C10.29561004 16.63594751 9.25593617 16.31857318 7.515625 14.15234375 C6.34375 12.1015625 5.171875 10.05078125 4 8 C3.67 12.95 3.34 17.9 3 23 C1.68 22.67 0.36 22.34 -1 22 C-1.02887814 18.52085059 -1.04675687 15.04173169 -1.0625 11.5625 C-1.07087891 10.56927734 -1.07925781 9.57605469 -1.08789062 8.55273438 C-1.09111328 7.60849609 -1.09433594 6.66425781 -1.09765625 5.69140625 C-1.10289307 4.81685791 -1.10812988 3.94230957 -1.11352539 3.04125977 C-1 1 -1 1 0 0 Z " fill="#EEDAA6" transform="translate(417,379)"/>
<path d="M0 0 C1.60488281 -0.03867187 1.60488281 -0.03867187 3.2421875 -0.078125 C6.125 0.25 6.125 0.25 7.99609375 1.47265625 C9.45682086 3.77241692 9.43002643 5.23439202 9.3125 7.9375 C9.28542969 8.74574219 9.25835937 9.55398438 9.23046875 10.38671875 C9.17826172 11.30904297 9.17826172 11.30904297 9.125 12.25 C9.785 12.25 10.445 12.25 11.125 12.25 C12.52435013 15.04870027 12.37765405 17.15498792 12.125 20.25 C11.12109375 21.9296875 11.12109375 21.9296875 9.125 23.25 C6.31372957 23.46714241 3.7366655 23.53284276 0.9375 23.4375 C0.18791016 23.42396484 -0.56167969 23.41042969 -1.33398438 23.39648438 C-3.18129767 23.36118539 -5.02824066 23.30737917 -6.875 23.25 C-6.90387512 19.60418313 -6.92175585 15.95839537 -6.9375 12.3125 C-6.94587891 11.27158203 -6.95425781 10.23066406 -6.96289062 9.15820312 C-6.96772461 7.67416992 -6.96772461 7.67416992 -6.97265625 6.16015625 C-6.97789307 5.24371338 -6.98312988 4.32727051 -6.98852539 3.38305664 C-6.75652003 -0.97614942 -3.70774058 0.05334879 0 0 Z M-2.625 3.4375 C-4.17339423 5.25671447 -4.17339423 5.25671447 -3.5625 7.9375 C-3.335625 8.700625 -3.10875 9.46375 -2.875 10.25 C0.54156024 10.41677282 0.54156024 10.41677282 4.125 10.25 C4.785 9.59 5.445 8.93 6.125 8.25 C6.0299261 6.2019572 6.0299261 6.2019572 5.125 4.25 C2.0250627 2.18337513 0.59559518 1.25209613 -2.625 3.4375 Z M-3.875 14.25 C-4.1250773 16.70809998 -4.1250773 16.70809998 -3.875 19.25 C-1.87942887 21.6782022 -1.87942887 21.6782022 2.0625 21.5625 C4.71776857 21.49008358 5.88341787 21.39641341 8.1875 20 C9.33205928 18.26427268 9.33205928 18.26427268 8.875 16.125 C8.27545529 14.26914885 8.27545529 14.26914885 7.125 13.25 C5.46070949 13.15176063 3.79218069 13.12026369 2.125 13.125 C1.2175 13.12242187 0.31 13.11984375 -0.625 13.1171875 C-2.84466611 12.99826221 -2.84466611 12.99826221 -3.875 14.25 Z " fill="#EEDAA5" transform="translate(302.875,378.75)"/>
<path d="M0 0 C1.50433594 0.01353516 1.50433594 0.01353516 3.0390625 0.02734375 C3.80992187 0.03894531 4.58078125 0.05054688 5.375 0.0625 C6.035 1.3825 6.695 2.7025 7.375 4.0625 C5.375 5.0625 5.375 5.0625 2.125 4 C-2.0325915 2.96060212 -3.77312161 3.37143144 -7.625 5.0625 C-7.8486337 6.47683206 -8.05326476 7.89417618 -8.25 9.3125 C-8.42402344 10.49585938 -8.42402344 10.49585938 -8.6015625 11.703125 C-8.62855832 14.42070445 -8.06597459 15.78386545 -6.625 18.0625 C-3.96815439 20.12893547 -2.48197351 20.05999076 0.9375 20 C4.5334039 19.3953046 4.5334039 19.3953046 6.3125 16.5 C6.663125 15.695625 7.01375 14.89125 7.375 14.0625 C4.735 13.7325 2.095 13.4025 -0.625 13.0625 C-0.295 12.0725 0.035 11.0825 0.375 10.0625 C2.02074566 10.03561849 3.66661413 10.01615877 5.3125 10 C6.22902344 9.98839844 7.14554688 9.97679687 8.08984375 9.96484375 C10.375 10.0625 10.375 10.0625 11.375 11.0625 C11.75 13.8125 11.75 13.8125 11.375 17.0625 C8.52926696 20.63999297 5.85523724 22.99577685 1.375 24.0625 C-4.73061978 23.95148873 -7.41669162 22.17061056 -11.625 18.0625 C-13.36721711 14.57806578 -13.21175154 10.86362955 -12.625 7.0625 C-9.49155417 1.40359038 -6.22064055 -0.07233303 0 0 Z " fill="#EDD9A5" transform="translate(549.625,378.9375)"/>
<path d="M0 0 C0.99 0.33 1.98 0.66 3 1 C3.33 3.97 3.66 6.94 4 10 C4.67546875 9.278125 5.3509375 8.55625 6.046875 7.8125 C6.93890625 6.884375 7.8309375 5.95625 8.75 5 C9.63171875 4.071875 10.5134375 3.14375 11.421875 2.1875 C14 0 14 0 18 0 C16.55089321 3.76767766 14.13242988 5.86244919 11.14453125 8.4375 C9.79061793 9.94058926 9.79061793 9.94058926 10.1015625 11.953125 C11.20111168 14.45818487 12.57891309 15.87460874 14.5625 17.75 C15.20316406 18.36359375 15.84382813 18.9771875 16.50390625 19.609375 C16.99761719 20.06828125 17.49132812 20.5271875 18 21 C17.67 21.99 17.34 22.98 17 24 C13.96976421 22.35501486 11.80257937 20.79787888 9.375 18.3125 C7.19424068 15.65119166 7.19424068 15.65119166 4 16 C3.67 18.31 3.34 20.62 3 23 C1.68 23 0.36 23 -1 23 C-1.02887512 19.35418313 -1.04675585 15.70839537 -1.0625 12.0625 C-1.07087891 11.02158203 -1.07925781 9.98066406 -1.08789062 8.90820312 C-1.09272461 7.42416992 -1.09272461 7.42416992 -1.09765625 5.91015625 C-1.10289307 4.99371338 -1.10812988 4.07727051 -1.11352539 3.13305664 C-1 1 -1 1 0 0 Z " fill="#EEDAA7" transform="translate(125,379)"/>
<path d="M0 0 C0.99 0 1.98 0 3 0 C3 3.3 3 6.6 3 10 C6.96 10 10.92 10 15 10 C15.33 6.7 15.66 3.4 16 0 C16.99 0 17.98 0 19 0 C19 7.59 19 15.18 19 23 C18.01 23 17.02 23 16 23 C15.505 18.05 15.505 18.05 15 13 C9.555 13.495 9.555 13.495 4 14 C3.67 16.97 3.34 19.94 3 23 C1.68 23 0.36 23 -1 23 C-1.02887512 19.35418313 -1.04675585 15.70839537 -1.0625 12.0625 C-1.07087891 11.02158203 -1.07925781 9.98066406 -1.08789062 8.90820312 C-1.09272461 7.42416992 -1.09272461 7.42416992 -1.09765625 5.91015625 C-1.10289307 4.99371338 -1.10812988 4.07727051 -1.11352539 3.13305664 C-1 1 -1 1 0 0 Z " fill="#EDDAA8" transform="translate(331,379)"/>
<path d="M0 0 C1.32 0 2.64 0 4 0 C5.53649202 3.43071182 7.05144123 6.87051918 8.5625 10.3125 C9.21895508 11.77719727 9.21895508 11.77719727 9.88867188 13.27148438 C10.29794922 14.20927734 10.70722656 15.14707031 11.12890625 16.11328125 C11.51119385 16.97735596 11.89348145 17.84143066 12.28735352 18.73168945 C13 21 13 21 12 24 C11.01 23.67 10.02 23.34 9 23 C8.3125 20.9375 8.3125 20.9375 8 19 C1.79602814 18.33160527 1.79602814 18.33160527 -4 20.11328125 C-5.81694481 21.61493404 -5.81694481 21.61493404 -8 24 C-9.1863116 20.44106521 -8.76263693 19.73720732 -7.3828125 16.3671875 C-6.84333984 15.03494141 -6.84333984 15.03494141 -6.29296875 13.67578125 C-5.90753906 12.75152344 -5.52210938 11.82726562 -5.125 10.875 C-4.74730469 9.94300781 -4.36960937 9.01101563 -3.98046875 8.05078125 C-1.16333128 1.16333128 -1.16333128 1.16333128 0 0 Z M1 5 C0.01 8.3 -0.98 11.6 -2 15 C-0.87465895 16.35618499 -0.87465895 16.35618499 2.0625 16.0625 C3.031875 16.041875 4.00125 16.02125 5 16 C5.33 15.34 5.66 14.68 6 14 C5.23278532 11.75583572 5.23278532 11.75583572 4.0625 9.375 C3.68222656 8.55773437 3.30195312 7.74046875 2.91015625 6.8984375 C2.60980469 6.27195312 2.30945313 5.64546875 2 5 C1.67 5 1.34 5 1 5 Z " fill="#EDD9A3" transform="translate(586,379)"/>
<path d="M0 0 C0.99 0.33 1.98 0.66 3 1 C3.05607422 2.80597656 3.05607422 2.80597656 3.11328125 4.6484375 C3.17892928 6.22399011 3.24537701 7.79950954 3.3125 9.375 C3.33505859 10.1690625 3.35761719 10.963125 3.38085938 11.78125 C3.47785075 13.86215581 3.72994825 15.93441332 4 18 C6.83573263 20.33775029 6.83573263 20.33775029 10.125 19.75 C11.07375 19.5025 12.0225 19.255 13 19 C14.585869 15.828262 14.37866445 12.36486178 14.5625 8.875 C14.60568359 8.12089844 14.64886719 7.36679687 14.69335938 6.58984375 C14.7994832 4.72678112 14.90025001 2.86341476 15 1 C16.32 1 17.64 1 19 1 C19.08139142 3.39652528 19.14067009 5.79025436 19.1875 8.1875 C19.21263672 8.86103516 19.23777344 9.53457031 19.26367188 10.22851562 C19.32933376 14.71541119 18.7322465 17.42907832 16 21 C12.92080053 23.56599956 11.48221121 24.00845985 7.4375 23.9375 C3.70871692 22.92055916 2.32035887 22.03431545 0 19 C-1.19825457 15.40523628 -1.14608744 12.11450601 -1.125 8.375 C-1.12886719 7.68148438 -1.13273438 6.98796875 -1.13671875 6.2734375 C-1.12666646 1.12666646 -1.12666646 1.12666646 0 0 Z " fill="#EEDBA8" transform="translate(159,379)"/>
<path d="M0 0 C0.99 0 1.98 0 3 0 C3.33 2.97 3.66 5.94 4 9 C7.96 9.33 11.92 9.66 16 10 C16 6.7 16 3.4 16 0 C16.99 0 17.98 0 19 0 C19 7.59 19 15.18 19 23 C18.01 23 17.02 23 16 23 C15.67 20.03 15.34 17.06 15 14 C11.37 13.67 7.74 13.34 4 13 C3.67 16.3 3.34 19.6 3 23 C2.01 23 1.02 23 0 23 C0 15.41 0 7.82 0 0 Z " fill="#EEDAA5" transform="translate(229,379)"/>
<path d="M0 0 C0 0.66 0 1.32 0 2 C-1.43725871 2.16873478 -2.87481838 2.33490737 -4.3125 2.5 C-5.11300781 2.5928125 -5.91351562 2.685625 -6.73828125 2.78125 C-9 3 -9 3 -12 3 C-11.67 4.98 -11.34 6.96 -11 9 C-8.36 9.33 -5.72 9.66 -3 10 C-2.67 10.99 -2.34 11.98 -2 13 C-6.455 13.495 -6.455 13.495 -11 14 C-11.33 15.98 -11.66 17.96 -12 20 C-11.39671875 19.97679687 -10.7934375 19.95359375 -10.171875 19.9296875 C-8.97304688 19.90261719 -8.97304688 19.90261719 -7.75 19.875 C-6.56664062 19.84019531 -6.56664062 19.84019531 -5.359375 19.8046875 C-2.79268059 20.0171622 -1.2083933 20.71345895 1 22 C1 22.33 1 22.66 1 23 C-4.95888964 24.14106397 -8.56583503 23.71490722 -15 23 C-15 15.41 -15 7.82 -15 0 C-4.875 -1.125 -4.875 -1.125 0 0 Z " fill="#EDD8A3" transform="translate(522,379)"/>
<path d="M0 0 C2.5625 2 2.5625 2 4 4 C3.40832031 3.90460938 2.81664062 3.80921875 2.20703125 3.7109375 C-4.10395071 2.82114636 -4.10395071 2.82114636 -10 5 C-12.19167509 6.7756455 -12.19167509 6.7756455 -12.23046875 9.05859375 C-12.21628906 9.84363281 -12.20210937 10.62867188 -12.1875 11.4375 C-12.18105469 12.21996094 -12.17460937 13.00242187 -12.16796875 13.80859375 C-12.07555669 16.17799677 -12.07555669 16.17799677 -11 19 C-3.97217958 20.0390717 -3.97217958 20.0390717 3 19 C3 19.99 3 20.98 3 22 C-1.67910713 23.47482061 -4.98192373 24.2670364 -9.8125 23 C-13.5185438 20.67463918 -15.10599517 18.93953005 -17 15 C-17.62258999 10.64187005 -17.31301399 8.59249076 -15.25 4.6875 C-11.05002086 -0.32914175 -6.30221258 -0.99447758 0 0 Z " fill="#EEDAA6" transform="translate(210,379)"/>
<path d="M0 0 C0.33 0 0.66 0 1 0 C1 29.04 1 58.08 1 88 C-3.95 88.33 -8.9 88.66 -14 89 C-19.245907 92.01446153 -19.245907 92.01446153 -21.62890625 97.17578125 C-22.01508593 99.60332175 -22.01508593 99.60332175 -22 103 C-22.66 102.34 -23.32 101.68 -24 101 C-23.91833872 96.01866197 -23.77865312 93.93837683 -20.5625 90.0625 C-13.47689731 84.35945393 -13.16872429 87 0 87 C0 58.29 0 29.58 0 0 Z " fill="#877B64" transform="translate(266,183)"/>
<path d="M0 0 C1.32 0.33 2.64 0.66 4 1 C4 7.27 4 13.54 4 20 C7.96 20.33 11.92 20.66 16 21 C16 21.66 16 22.32 16 23 C13.89651926 23.19504458 11.79217415 23.38078496 9.6875 23.5625 C7.92986328 23.71912109 7.92986328 23.71912109 6.13671875 23.87890625 C3 24 3 24 0 23 C0 15.41 0 7.82 0 0 Z " fill="#EDDAA7" transform="translate(475,379)"/>
<path d="M0 0 C0.76723389 0.00128906 1.53446777 0.00257812 2.32495117 0.00390625 C7.78867465 0.09701476 11.83737366 0.97126408 16.8125 3.3125 C20.68791009 3.76042163 20.68791009 3.76042163 22.453125 1.82421875 C26.24034263 -0.60235943 30.17181858 -0.00146719 34.5625 0.125 C35.45066406 0.13853516 36.33882813 0.15207031 37.25390625 0.16601562 C39.44072578 0.20128691 41.62629966 0.25057248 43.8125 0.3125 C44.3075 1.3025 44.3075 1.3025 44.8125 2.3125 C43.49894531 2.34988281 42.18539062 2.38726562 40.83203125 2.42578125 C39.09632636 2.49145657 37.36065053 2.55790337 35.625 2.625 C34.76068359 2.64755859 33.89636719 2.67011719 33.00585938 2.69335938 C28.05463281 2.90203176 24.96289928 3.37627107 20.8125 6.3125 C18.0353677 6.10421508 16.02867136 5.40779428 13.48754883 4.28759766 C10.68282833 3.26523262 8.4848444 3.0027577 5.51171875 2.8984375 C4.53525391 2.85976562 3.55878906 2.82109375 2.55273438 2.78125 C1.54533203 2.7503125 0.53792969 2.719375 -0.5 2.6875 C-1.52673828 2.64882812 -2.55347656 2.61015625 -3.61132812 2.5703125 C-6.13654265 2.47635103 -8.66175592 2.3906846 -11.1875 2.3125 C-7.41705068 -0.20113288 -4.36962104 -0.02989372 0 0 Z " fill="#645538" transform="translate(394.1875,78.6875)"/>
<path d="M0 0 C2 2 2 2 2.22705078 4.24658203 C2.21657715 5.15778809 2.20610352 6.06899414 2.1953125 7.0078125 C2.18886719 7.99394531 2.18242187 8.98007812 2.17578125 9.99609375 C2.15902344 11.02863281 2.14226562 12.06117188 2.125 13.125 C2.11597656 14.16527344 2.10695313 15.20554687 2.09765625 16.27734375 C2.07403747 18.85179092 2.04110149 21.42578212 2 24 C0.68 24 -0.64 24 -2 24 C-2.05787784 20.37506666 -2.0935542 16.75025143 -2.125 13.125 C-2.14175781 12.09246094 -2.15851563 11.05992187 -2.17578125 9.99609375 C-2.18222656 9.00996094 -2.18867188 8.02382813 -2.1953125 7.0078125 C-2.20578613 6.09660645 -2.21625977 5.18540039 -2.22705078 4.24658203 C-2 2 -2 2 0 0 Z " fill="#EEDCAC" transform="translate(367,378)"/>
<path d="M0 0 C0.99 0.33 1.98 0.66 3 1 C3 8.26 3 15.52 3 23 C1.68 23 0.36 23 -1 23 C-1.02887512 19.35418313 -1.04675585 15.70839537 -1.0625 12.0625 C-1.07087891 11.02158203 -1.07925781 9.98066406 -1.08789062 8.90820312 C-1.09272461 7.42416992 -1.09272461 7.42416992 -1.09765625 5.91015625 C-1.10289307 4.99371338 -1.10812988 4.07727051 -1.11352539 3.13305664 C-1 1 -1 1 0 0 Z " fill="#EFDDAC" transform="translate(457,379)"/>
<path d="M0 0 C1 2 1 2 0.58227539 4.07495117 C-0.19690607 7.98915371 -0.23377272 11.81856208 -0.31640625 15.80078125 C-0.33718735 16.63715622 -0.35796844 17.47353119 -0.37937927 18.33525085 C-0.44451034 20.99425421 -0.5035895 23.65335228 -0.5625 26.3125 C-0.60571992 28.12045231 -0.6493353 29.92839522 -0.69335938 31.73632812 C-0.80015416 36.15745622 -0.90152325 40.57867912 -1 45 C-3.58490495 42.41509505 -3.25842316 40.63205365 -3.30354309 37.10795593 C-3.30263168 36.30276016 -3.30172028 35.49756439 -3.30078125 34.66796875 C-3.30506638 33.83920731 -3.3093515 33.01044586 -3.31376648 32.15657043 C-3.31951559 30.40053216 -3.32000577 28.64447007 -3.31567383 26.88842773 C-3.31252456 24.20840408 -3.33592753 21.52949558 -3.36132812 18.84960938 C-3.36360221 17.14323056 -3.3643041 15.43684878 -3.36328125 13.73046875 C-3.372491 12.93134567 -3.38170074 12.1322226 -3.39118958 11.30888367 C-3.35302644 6.68947804 -2.88701775 3.8192988 0 0 Z " fill="#837D73" transform="translate(292,208)"/>
<path d="M0 0 C0.33 0 0.66 0 1 0 C1 11.22 1 22.44 1 34 C2.98 34 4.96 34 7 34 C7 27.4 7 20.8 7 14 C7.99 14 8.98 14 10 14 C9.86179731 17.3128652 9.71316222 20.62517989 9.5625 23.9375 C9.50352539 25.35579102 9.50352539 25.35579102 9.44335938 26.80273438 C9.40146484 27.70185547 9.35957031 28.60097656 9.31640625 29.52734375 C9.26141968 30.77632446 9.26141968 30.77632446 9.20532227 32.05053711 C9 34 9 34 8 35 C5.36 35 2.72 35 0 35 C0 23.45 0 11.9 0 0 Z " fill="#F1DCB2" transform="translate(193,326)"/>
<path d="M0 0 C0.66 0.33 1.32 0.66 2 1 C-4.93 7.93 -11.86 14.86 -19 22 C-19.66 21.67 -20.32 21.34 -21 21 C-14.47429312 13.40315437 -7.47007318 6.64849153 0 0 Z " fill="#EFD7A7" transform="translate(274,46)"/>
<path d="M0 0 C0.66 0.33 1.32 0.66 2 1 C-4.27 7.27 -10.54 13.54 -17 20 C-17.66 19.67 -18.32 19.34 -19 19 C-6.51480638 5.18223235 -6.51480638 5.18223235 0 0 Z " fill="#F0D7A7" transform="translate(287,61)"/>
<path d="M0 0 C4.95 0 9.9 0 15 0 C15.33 0.99 15.66 1.98 16 3 C10.72 3 5.44 3 0 3 C0 2.01 0 1.02 0 0 Z " fill="#EDDAA7" transform="translate(385,401)"/>
<path d="M0 0 C5.28 0 10.56 0 16 0 C16 0.99 16 1.98 16 3 C10.72 3 5.44 3 0 3 C0 2.01 0 1.02 0 0 Z " fill="#EDDAA7" transform="translate(264,401)"/>
<path d="M0 0 C0.33 0 0.66 0 1 0 C1 7.59 1 15.18 1 23 C0.34 23 -0.32 23 -1 23 C-1.19397476 21.02145742 -1.38001321 19.0421352 -1.5625 17.0625 C-1.66691406 15.96035156 -1.77132812 14.85820312 -1.87890625 13.72265625 C-1.91886719 12.82417969 -1.95882812 11.92570312 -2 11 C-1.67 10.67 -1.34 10.34 -1 10 C-0.76712992 8.31816052 -0.58735834 6.6287584 -0.4375 4.9375 C-0.35371094 4.01839844 -0.26992187 3.09929687 -0.18359375 2.15234375 C-0.12300781 1.44207031 -0.06242188 0.73179687 0 0 Z " fill="#EDD69D" transform="translate(247,379)"/>
<path d="M0 0 C1.32 0.33 2.64 0.66 4 1 C3.195625 1.66 2.39125 2.32 1.5625 3 C-1.75148924 6.87979228 -1.74577025 9.00014825 -2 14 C-2.66 13.34 -3.32 12.68 -4 12 C-3.76051177 7.05057663 -3.54583971 3.70000666 0 0 Z " fill="#66625A" transform="translate(246,272)"/>
<path d="M0 0 C0.66 0.33 1.32 0.66 2 1 C0.90344712 2.31886772 -0.20253423 3.62990057 -1.3125 4.9375 C-1.92738281 5.66839844 -2.54226563 6.39929688 -3.17578125 7.15234375 C-5 9 -5 9 -8 10 C-6.5682479 4.98886765 -4.01554307 3.05530451 0 0 Z " fill="#5D584D" transform="translate(405,206)"/>
<path d="M0 0 C4.29 0.33 8.58 0.66 13 1 C13 1.66 13 2.32 13 3 C8.71 3 4.42 3 0 3 C0 2.01 0 1.02 0 0 Z " fill="#EBD498" transform="translate(297,399)"/>
</svg>
