<?xml version="1.0" encoding="UTF-8"?>
<svg version="1.1" xmlns="http://www.w3.org/2000/svg" width="482" height="135">
<path d="M0 0 C7.46416546 7.12369476 11.37640284 16.24822357 12.18359375 26.421875 C12.33308879 35.82647187 9.30272278 43.30385087 4.2265625 51.125 C3.5665625 51.785 2.9065625 52.445 2.2265625 53.125 C1.584039 55.19374034 1.584039 55.19374034 1.2265625 57.125 C2.0309375 57.393125 2.8353125 57.66125 3.6640625 57.9375 C4.5096875 58.329375 5.3553125 58.72125 6.2265625 59.125 C6.5565625 60.115 6.8865625 61.105 7.2265625 62.125 C6.8965625 62.785 6.5665625 63.445 6.2265625 64.125 C3.14152301 65.1533465 1.02523991 65.25176813 -2.20703125 65.25439453 C-3.87390991 65.25912277 -3.87390991 65.25912277 -5.57446289 65.26394653 C-6.77449951 65.2619223 -7.97453613 65.25989807 -9.2109375 65.2578125 C-10.44255615 65.25876923 -11.6741748 65.25972595 -12.94311523 65.26071167 C-16.21677406 65.26156716 -19.49038555 65.25753854 -22.76403809 65.25195312 C-24.77141837 65.25000196 -26.77875493 65.25194616 -28.78613281 65.25537109 C-32.63608846 65.26153633 -36.48597918 65.26080316 -40.3359375 65.2578125 C-42.13599243 65.26084885 -42.13599243 65.26084885 -43.97241211 65.26394653 C-45.08366455 65.26079437 -46.19491699 65.25764221 -47.33984375 65.25439453 C-48.31896729 65.25359894 -49.29809082 65.25280334 -50.30688477 65.25198364 C-52.7734375 65.125 -52.7734375 65.125 -55.7734375 64.125 C-56.4609375 62.0625 -56.4609375 62.0625 -56.7734375 60.125 C-54.7934375 58.805 -52.8134375 57.485 -50.7734375 56.125 C-52.37643596 51.73216769 -54.60244533 48.36011423 -57.3359375 44.6015625 C-62.09617591 36.40049959 -62.17735839 25.86335625 -59.96875 16.8359375 C-55.73176035 5.52755823 -48.48337961 -1.70550929 -37.66796875 -6.81640625 C-24.68901169 -11.56309635 -10.84292485 -8.19400184 0 0 Z M-53.1484375 10.0625 C-57.74017311 18.71615557 -59.56122764 27.09948507 -56.71875 36.6796875 C-54.93427652 42.84667342 -54.93427652 42.84667342 -50.7734375 47.125 C-51.40944259 44.35251179 -52.2873483 41.82670276 -53.3359375 39.1875 C-56.19714961 30.57553484 -55.85599658 21.57078033 -52.02734375 13.33984375 C-47.84414605 5.950831 -42.0421305 1.19261513 -33.9140625 -1.48828125 C-23.59660801 -3.35220095 -14.32570299 -2.12761675 -5.55859375 3.5625 C0.11366583 7.95665267 3.37170477 13.20988525 5.2265625 20.125 C6.22735959 28.49449776 5.78182879 35.67552533 2.00390625 43.26953125 C1.61912109 44.18798828 1.61912109 44.18798828 1.2265625 45.125 C1.5565625 45.785 1.8865625 46.445 2.2265625 47.125 C3.04667562 45.56648245 3.85732463 44.00298284 4.6640625 42.4375 C5.11652344 41.56738281 5.56898437 40.69726562 6.03515625 39.80078125 C9.55113665 31.9042351 8.66569488 23.86774001 6.2578125 15.796875 C3.27859645 8.07799705 -2.72903651 2.29864197 -9.7734375 -1.875 C-26.55047799 -8.6144949 -41.96078843 -3.77485542 -53.1484375 10.0625 Z M-36.7734375 11.125 C-37.96631161 15.00184087 -38.7734375 18.04121923 -38.7734375 22.125 C-36.77389004 22.16754356 -34.77302114 22.16580783 -32.7734375 22.125 C-31.51394701 21.09093327 -31.51394701 21.09093327 -31.67578125 18.83984375 C-31.68738281 17.92332031 -31.69898438 17.00679687 -31.7109375 16.0625 C-31.72447266 14.68384766 -31.72447266 14.68384766 -31.73828125 13.27734375 C-31.74988281 12.56707031 -31.76148438 11.85679688 -31.7734375 11.125 C-33.4234375 11.125 -35.0734375 11.125 -36.7734375 11.125 Z M-17.7734375 11.125 C-19.4326515 14.443428 -18.34603278 17.51764976 -17.7734375 21.125 C-16.64809645 22.48118499 -16.64809645 22.48118499 -13.7109375 22.1875 C-12.7415625 22.166875 -11.7721875 22.14625 -10.7734375 22.125 C-10.91451497 20.66619891 -11.06146165 19.20796449 -11.2109375 17.75 C-11.29214844 16.93789063 -11.37335938 16.12578125 -11.45703125 15.2890625 C-11.66433864 13.08227195 -11.66433864 13.08227195 -12.7734375 11.125 C-14.4234375 11.125 -16.0734375 11.125 -17.7734375 11.125 Z M-46.7734375 40.125 C-46.7734375 45.735 -46.7734375 51.345 -46.7734375 57.125 C-36.5434375 57.125 -26.3134375 57.125 -15.7734375 57.125 C-15.7734375 53.495 -15.7734375 49.865 -15.7734375 46.125 C-14.7734375 42.125 -14.7734375 42.125 -12.7734375 40.125 C-15.4134375 39.465 -18.0534375 38.805 -20.7734375 38.125 C-20.4434375 39.445 -20.1134375 40.765 -19.7734375 42.125 C-19.35001355 46.45333372 -19.07717102 50.78594976 -18.7734375 55.125 C-26.6934375 55.125 -34.6134375 55.125 -42.7734375 55.125 C-43.06640625 45.1640625 -43.06640625 45.1640625 -42.7734375 42.125 C-41.7834375 41.465 -40.7934375 40.805 -39.7734375 40.125 C-39.7734375 39.465 -39.7734375 38.805 -39.7734375 38.125 C-42.36147274 38.00120311 -42.36147274 38.00120311 -46.7734375 40.125 Z M-30.7734375 38.125 C-31.1034375 38.785 -31.4334375 39.445 -31.7734375 40.125 C-30.7834375 39.795 -29.7934375 39.465 -28.7734375 39.125 C-29.4334375 38.795 -30.0934375 38.465 -30.7734375 38.125 Z M-9.7734375 38.125 C-10.1034375 38.785 -10.4334375 39.445 -10.7734375 40.125 C-9.566875 40.558125 -9.566875 40.558125 -8.3359375 41 C-5.7734375 42.125 -5.7734375 42.125 -4.7734375 44.125 C-4.54393431 46.329364 -4.36267817 48.53892173 -4.2109375 50.75 C-4.12714844 51.93851563 -4.04335937 53.12703125 -3.95703125 54.3515625 C-3.89644531 55.26679687 -3.83585937 56.18203125 -3.7734375 57.125 C-3.4434375 57.125 -3.1134375 57.125 -2.7734375 57.125 C-2.7734375 51.515 -2.7734375 45.905 -2.7734375 40.125 C-5.0834375 39.465 -7.3934375 38.805 -9.7734375 38.125 Z M-40.7734375 46.125 C-40.81598106 48.12454746 -40.81424533 50.12541636 -40.7734375 52.125 C-38.8879122 54.0105253 -36.19574919 53.25746689 -33.69140625 53.26171875 C-32.89347656 53.25785156 -32.09554687 53.25398438 -31.2734375 53.25 C-30.47550781 53.25386719 -29.67757812 53.25773437 -28.85546875 53.26171875 C-25.0050443 53.6339961 -25.0050443 53.6339961 -21.7734375 52.125 C-21.60677083 49.625 -21.60677083 49.625 -21.7734375 47.125 C-22.74676011 45.93158248 -22.74676011 45.93158248 -24.53930664 46.01147461 C-25.28817139 46.01671143 -26.03703613 46.02194824 -26.80859375 46.02734375 C-27.61748047 46.03056641 -28.42636719 46.03378906 -29.25976562 46.03710938 C-30.10990234 46.04548828 -30.96003906 46.05386719 -31.8359375 46.0625 C-32.68994141 46.06701172 -33.54394531 46.07152344 -34.42382812 46.07617188 C-36.54039413 46.08799627 -38.65692435 46.10593231 -40.7734375 46.125 Z " fill="#EACF99" transform="translate(85.7734375,33.875)"/>
<path d="M0 0 C1.48831242 0.00667405 2.97660807 0.01863442 4.46484375 0.03515625 C5.22345703 0.03966797 5.98207031 0.04417969 6.76367188 0.04882812 C8.64326246 0.06064945 10.52281274 0.07858547 12.40234375 0.09765625 C12.40234375 0.75765625 12.40234375 1.41765625 12.40234375 2.09765625 C10.75234375 2.09765625 9.10234375 2.09765625 7.40234375 2.09765625 C7.07234375 4.73765625 6.74234375 7.37765625 6.40234375 10.09765625 C5.74234375 10.09765625 5.08234375 10.09765625 4.40234375 10.09765625 C4.89734375 17.02765625 4.89734375 17.02765625 5.40234375 24.09765625 C7.71234375 24.09765625 10.02234375 24.09765625 12.40234375 24.09765625 C12.73234375 16.50765625 13.06234375 8.91765625 13.40234375 1.09765625 C22.40234375 0.09765625 22.40234375 0.09765625 25.40234375 1.09765625 C25.29261805 5.03573853 25.16195244 8.97285214 25.02734375 12.91015625 C24.9809375 14.58948242 24.9809375 14.58948242 24.93359375 16.30273438 C24.89492187 17.37587891 24.85625 18.44902344 24.81640625 19.5546875 C24.78498535 20.5444458 24.75356445 21.5342041 24.72119141 22.55395508 C24.40234375 25.09765625 24.40234375 25.09765625 22.40234375 28.09765625 C19.88037109 28.43823242 19.88037109 28.43823242 16.73828125 28.390625 C15.61679687 28.38095703 14.4953125 28.37128906 13.33984375 28.36132812 C12.16421875 28.33619141 10.98859375 28.31105469 9.77734375 28.28515625 C8.59398438 28.27162109 7.410625 28.25808594 6.19140625 28.24414062 C3.26152624 28.20869853 0.33187909 28.1548903 -2.59765625 28.09765625 C-2.59765625 35.02765625 -2.59765625 41.95765625 -2.59765625 49.09765625 C7.30234375 48.76765625 17.20234375 48.43765625 27.40234375 48.09765625 C27.40234375 44.79765625 27.40234375 41.49765625 27.40234375 38.09765625 C28.40234375 34.97265625 28.40234375 34.97265625 29.40234375 33.09765625 C30.85976838 33.01668822 32.31847182 32.95847851 33.77734375 32.91015625 C34.58945313 32.87535156 35.4015625 32.84054688 36.23828125 32.8046875 C36.95242187 32.90136719 37.6665625 32.99804688 38.40234375 33.09765625 C40.82364706 36.72961121 40.6125716 38.48114973 40.52734375 42.78515625 C40.50929687 43.96464844 40.49125 45.14414063 40.47265625 46.359375 C40.44945312 47.26300781 40.42625 48.16664062 40.40234375 49.09765625 C41.06234375 49.09765625 41.72234375 49.09765625 42.40234375 49.09765625 C42.40234375 42.16765625 42.40234375 35.23765625 42.40234375 28.09765625 C40.75234375 28.09765625 39.10234375 28.09765625 37.40234375 28.09765625 C36.41234375 27.43765625 35.42234375 26.77765625 34.40234375 26.09765625 C34.03988768 23.30793287 33.84357497 20.70842519 33.77734375 17.91015625 C33.7255279 16.41656428 33.67086998 14.92306803 33.61328125 13.4296875 C33.58717773 12.70475098 33.56107422 11.97981445 33.53417969 11.23291016 C33.40621377 9.1603362 33.14411457 7.15886075 32.81640625 5.109375 C32.61144531 3.61857422 32.61144531 3.61857422 32.40234375 2.09765625 C33.40234375 1.09765625 33.40234375 1.09765625 37.21484375 0.78515625 C40.30775065 0.829499 41.2098961 0.96442326 43.83984375 2.78515625 C47.03620597 7.51577233 46.52903693 12.88460455 46.46484375 18.41015625 C46.46033203 19.15072266 46.45582031 19.89128906 46.45117188 20.65429688 C46.4394655 22.46878524 46.42153273 24.28323159 46.40234375 26.09765625 C45.74234375 26.09765625 45.08234375 26.09765625 44.40234375 26.09765625 C44.40234375 34.01765625 44.40234375 41.93765625 44.40234375 50.09765625 C46.05234375 50.09765625 47.70234375 50.09765625 49.40234375 50.09765625 C50.46484375 51.97265625 50.46484375 51.97265625 51.40234375 54.09765625 C50.90734375 55.08765625 50.90734375 55.08765625 50.40234375 56.09765625 C47.31730426 57.12600275 45.20102116 57.22442438 41.96875 57.22705078 C40.30187134 57.23177902 40.30187134 57.23177902 38.60131836 57.23660278 C37.40128174 57.23457855 36.20124512 57.23255432 34.96484375 57.23046875 C33.7332251 57.23142548 32.50160645 57.2323822 31.23266602 57.23336792 C27.95900719 57.23422341 24.6853957 57.23019479 21.41174316 57.22460938 C19.40436288 57.22265821 17.39702632 57.22460241 15.38964844 57.22802734 C11.53969279 57.23419258 7.68980207 57.23345941 3.83984375 57.23046875 C2.03978882 57.2335051 2.03978882 57.2335051 0.20336914 57.23660278 C-0.9078833 57.23345062 -2.01913574 57.23029846 -3.1640625 57.22705078 C-4.14318604 57.22625519 -5.12230957 57.22545959 -6.13110352 57.22463989 C-8.59765625 57.09765625 -8.59765625 57.09765625 -11.59765625 56.09765625 C-12.28515625 54.03515625 -12.28515625 54.03515625 -12.59765625 52.09765625 C-11.61796875 51.65679687 -10.63828125 51.2159375 -9.62890625 50.76171875 C-7.36555448 49.2505986 -6.6949856 48.51599221 -6.0703125 45.83105469 C-5.93365673 43.02443514 -5.97691469 40.27989754 -6.09765625 37.47265625 C-6.10796875 36.50585938 -6.11828125 35.5390625 -6.12890625 34.54296875 C-5.95145095 29.28075731 -5.95145095 29.28075731 -8.59765625 25.09765625 C-9.69081977 16.46674894 -8.31158817 8.91332021 -4.59765625 1.09765625 C-3.59765625 0.09765625 -3.59765625 0.09765625 0 0 Z " fill="#5E584D" transform="translate(41.59765625,41.90234375)"/>
<path d="M0 0 C0.75732422 0.04833984 1.51464844 0.09667969 2.29492188 0.14648438 C3.08060547 0.20255859 3.86628906 0.25863281 4.67578125 0.31640625 C5.47306641 0.36861328 6.27035156 0.42082031 7.09179688 0.47460938 C9.05764647 0.60409647 11.0230179 0.74080666 12.98828125 0.87890625 C13.64828125 2.19890625 14.30828125 3.51890625 14.98828125 4.87890625 C13.99828125 4.21890625 13.00828125 3.55890625 11.98828125 2.87890625 C9.93118529 2.63835157 9.93118529 2.63835157 7.80078125 2.75390625 C6.54265625 2.79515625 5.28453125 2.83640625 3.98828125 2.87890625 C4.23384766 4.33490234 4.23384766 4.33490234 4.484375 5.8203125 C5.10456966 10.16167513 5.09954542 14.43888396 5.05078125 18.81640625 C5.04626953 19.59564453 5.04175781 20.37488281 5.03710938 21.17773438 C5.02545033 23.07815893 5.00752002 24.97854331 4.98828125 26.87890625 C7.62828125 27.53890625 10.26828125 28.19890625 12.98828125 28.87890625 C12.98828125 35.80890625 12.98828125 42.73890625 12.98828125 49.87890625 C12.65828125 49.87890625 12.32828125 49.87890625 11.98828125 49.87890625 C11.98828125 44.26890625 11.98828125 38.65890625 11.98828125 32.87890625 C9.67828125 32.54890625 7.36828125 32.21890625 4.98828125 31.87890625 C5.64828125 32.53890625 6.30828125 33.19890625 6.98828125 33.87890625 C5.38332558 33.76448164 3.77930006 33.63695931 2.17578125 33.50390625 C1.28246094 33.43429688 0.38914063 33.3646875 -0.53125 33.29296875 C-3.01171875 32.87890625 -3.01171875 32.87890625 -6.01171875 30.87890625 C-5.68429688 31.3996875 -5.356875 31.92046875 -5.01953125 32.45703125 C-3.70082039 35.62602634 -3.81831599 38.20876815 -3.88671875 41.62890625 C-3.90476562 42.799375 -3.9228125 43.96984375 -3.94140625 45.17578125 C-3.96460937 46.0678125 -3.9878125 46.95984375 -4.01171875 47.87890625 C-6.5016754 49.12388458 -8.20166786 49.00824997 -10.984375 49.01171875 C-12.45680664 49.01365234 -12.45680664 49.01365234 -13.95898438 49.015625 C-14.98701172 49.01175781 -16.01503906 49.00789063 -17.07421875 49.00390625 C-18.10611328 49.00777344 -19.13800781 49.01164062 -20.20117188 49.015625 C-21.18150391 49.01433594 -22.16183594 49.01304688 -23.171875 49.01171875 C-24.07558838 49.01059082 -24.97930176 49.00946289 -25.91040039 49.00830078 C-28.01171875 48.87890625 -28.01171875 48.87890625 -29.01171875 47.87890625 C-29.08430821 45.69251172 -29.09545658 43.50390236 -29.07421875 41.31640625 C-29.06519531 40.11886719 -29.05617187 38.92132813 -29.046875 37.6875 C-29.03527344 36.76066406 -29.02367187 35.83382812 -29.01171875 34.87890625 C-27.69171875 34.21890625 -26.37171875 33.55890625 -25.01171875 32.87890625 C-25.01171875 32.21890625 -25.01171875 31.55890625 -25.01171875 30.87890625 C-26.00171875 31.53890625 -26.99171875 32.19890625 -28.01171875 32.87890625 C-29.33171875 32.87890625 -30.65171875 32.87890625 -32.01171875 32.87890625 C-32.01171875 31.55890625 -32.01171875 30.23890625 -32.01171875 28.87890625 C-26.48463264 27.93670499 -21.17413523 27.75774476 -15.57421875 27.81640625 C-14.74728516 27.82091797 -13.92035156 27.82542969 -13.06835938 27.83007812 C-11.04944729 27.84174814 -9.03057301 27.85967907 -7.01171875 27.87890625 C-5.78649362 25.42845598 -5.82278339 23.67941927 -5.73046875 20.94140625 C-5.69308594 19.96429688 -5.65570313 18.9871875 -5.6171875 17.98046875 C-5.58238281 16.95695312 -5.54757813 15.9334375 -5.51171875 14.87890625 C-5.44299524 12.85792597 -5.37027671 10.83707636 -5.29296875 8.81640625 C-5.26267578 7.91792969 -5.23238281 7.01945312 -5.20117188 6.09375 C-5.01171875 3.87890625 -5.01171875 3.87890625 -4.01171875 1.87890625 C-5.00171875 1.54890625 -5.99171875 1.21890625 -7.01171875 0.87890625 C-4.18726283 -0.06257906 -2.87000257 -0.1942107 0 0 Z M-3.01171875 3.87890625 C-4.67093275 7.19733425 -3.58431403 10.27155601 -3.01171875 13.87890625 C-1.8863777 15.23509124 -1.8863777 15.23509124 1.05078125 14.94140625 C2.02015625 14.92078125 2.98953125 14.90015625 3.98828125 14.87890625 C3.84720378 13.42010516 3.7002571 11.96187074 3.55078125 10.50390625 C3.46957031 9.69179688 3.38835937 8.8796875 3.3046875 8.04296875 C3.09738011 5.8361782 3.09738011 5.8361782 1.98828125 3.87890625 C0.33828125 3.87890625 -1.31171875 3.87890625 -3.01171875 3.87890625 Z M-16.01171875 30.87890625 C-16.34171875 31.53890625 -16.67171875 32.19890625 -17.01171875 32.87890625 C-16.02171875 32.54890625 -15.03171875 32.21890625 -14.01171875 31.87890625 C-14.67171875 31.54890625 -15.33171875 31.21890625 -16.01171875 30.87890625 Z M-26.01171875 38.87890625 C-26.05426231 40.87845371 -26.05252658 42.87932261 -26.01171875 44.87890625 C-24.12619345 46.76443155 -21.43403044 46.01137314 -18.9296875 46.015625 C-18.13175781 46.01175781 -17.33382812 46.00789063 -16.51171875 46.00390625 C-15.71378906 46.00777344 -14.91585937 46.01164062 -14.09375 46.015625 C-10.24332555 46.38790235 -10.24332555 46.38790235 -7.01171875 44.87890625 C-6.84505208 42.37890625 -6.84505208 42.37890625 -7.01171875 39.87890625 C-7.98504136 38.68548873 -7.98504136 38.68548873 -9.77758789 38.76538086 C-10.52645264 38.77061768 -11.27531738 38.77585449 -12.046875 38.78125 C-12.85576172 38.78447266 -13.66464844 38.78769531 -14.49804688 38.79101562 C-15.34818359 38.79939453 -16.19832031 38.80777344 -17.07421875 38.81640625 C-17.92822266 38.82091797 -18.78222656 38.82542969 -19.66210938 38.83007812 C-21.77867538 38.84190252 -23.8952056 38.85983856 -26.01171875 38.87890625 Z " fill="#8D8066" transform="translate(71.01171875,41.12109375)"/>
<path d="M0 0 C7.46416546 7.12369476 11.37640284 16.24822357 12.18359375 26.421875 C12.33074708 35.67915732 9.48743748 43.53488266 4.2265625 51.125 C2.7415625 52.115 2.7415625 52.115 1.2265625 53.125 C0.5073185 47.65874559 2.46391836 44.2268625 5.03515625 39.58984375 C8.73307241 31.93940081 7.60290877 23.67371328 5.26171875 15.80078125 C2.4477502 8.52693802 -2.97873196 2.87904557 -9.7734375 -0.875 C-21.08674535 -5.25168114 -30.67115872 -4.60143828 -41.7734375 0.125 C-49.7959011 5.3592456 -54.71563189 12.82077891 -56.7734375 22.125 C-58.01120588 30.9642807 -55.49334279 38.14854734 -51.7734375 46.125 C-51.4434375 46.455 -51.1134375 46.785 -50.7734375 47.125 C-50.73279918 48.79117115 -50.7307165 50.45888095 -50.7734375 52.125 C-57.20092977 46.04493975 -60.21205986 40.4846792 -61.14453125 31.58203125 C-61.37709744 18.81825133 -58.30880576 9.60163242 -49.375 0.32421875 C-34.6011305 -12.16480307 -15.18959317 -11.4787805 0 0 Z " fill="#EFD8A8" transform="translate(85.7734375,33.875)"/>
<path d="M0 0 C1.48831242 0.00667405 2.97660807 0.01863442 4.46484375 0.03515625 C5.22345703 0.03966797 5.98207031 0.04417969 6.76367188 0.04882812 C8.64326246 0.06064945 10.52281274 0.07858547 12.40234375 0.09765625 C12.40234375 0.75765625 12.40234375 1.41765625 12.40234375 2.09765625 C10.75234375 2.09765625 9.10234375 2.09765625 7.40234375 2.09765625 C7.07234375 4.73765625 6.74234375 7.37765625 6.40234375 10.09765625 C5.74234375 10.09765625 5.08234375 10.09765625 4.40234375 10.09765625 C4.40234375 15.37765625 4.40234375 20.65765625 4.40234375 26.09765625 C-3.3125 26.1953125 -3.3125 26.1953125 -5.59765625 26.09765625 C-6.59765625 25.09765625 -6.59765625 25.09765625 -6.66015625 22.2265625 C-6.61853521 19.8515617 -6.57686864 17.4765617 -6.53515625 15.1015625 C-6.38146219 12.17295171 -6.38146219 12.17295171 -7.59765625 10.09765625 C-7.07421875 7.96875 -7.07421875 7.96875 -6.22265625 5.53515625 C-5.94679687 4.72949219 -5.6709375 3.92382812 -5.38671875 3.09375 C-4.04796436 -0.29290095 -3.9929486 0.10838623 0 0 Z " fill="#4C4332" transform="translate(41.59765625,41.90234375)"/>
<path d="M0 0 C3.0929069 0.04434275 3.99505235 0.17926701 6.625 2 C9.76428643 6.64614392 9.39807325 12.05418083 9.4375 17.5 C9.458125 18.22380859 9.47875 18.94761719 9.5 19.69335938 C9.515625 21.79296875 9.515625 21.79296875 9.1875 25.3125 C5.71751271 27.62582486 4.26240752 27.65207563 0.1875 27.3125 C-0.8025 26.6525 -1.7925 25.9925 -2.8125 25.3125 C-3.17495607 22.52277662 -3.37126878 19.92326894 -3.4375 17.125 C-3.48931585 15.63140803 -3.54397377 14.13791178 -3.6015625 12.64453125 C-3.62766602 11.91959473 -3.65376953 11.1946582 -3.68066406 10.44775391 C-3.80862998 8.37517995 -4.07072918 6.3737045 -4.3984375 4.32421875 C-4.53507812 3.33035156 -4.67171875 2.33648437 -4.8125 1.3125 C-3.8125 0.3125 -3.8125 0.3125 0 0 Z " fill="#484132" transform="translate(78.8125,42.6875)"/>
<path d="M0 0 C0.80824219 0.10183594 1.61648437 0.20367187 2.44921875 0.30859375 C3.06410156 0.39238281 3.67898437 0.47617187 4.3125 0.5625 C4.2027743 4.50058228 4.07210869 8.43769589 3.9375 12.375 C3.89109375 14.05432617 3.89109375 14.05432617 3.84375 15.76757812 C3.78574219 17.37729492 3.78574219 17.37729492 3.7265625 19.01953125 C3.6951416 20.00928955 3.6637207 20.99904785 3.63134766 22.01879883 C3.3125 24.5625 3.3125 24.5625 1.3125 27.5625 C-2.3125 27.75 -2.3125 27.75 -5.6875 27.5625 C-5.6875 26.9025 -5.6875 26.2425 -5.6875 25.5625 C-6.6775 25.5625 -7.6675 25.5625 -8.6875 25.5625 C-8.3575 17.3125 -8.0275 9.0625 -7.6875 0.5625 C-4.59271121 -0.46909626 -3.16118607 -0.41232862 0 0 Z " fill="#3F382A" transform="translate(62.6875,42.4375)"/>
<path d="M0 0 C1.02996094 -0.00128906 2.05992188 -0.00257812 3.12109375 -0.00390625 C4.74724609 0.00189453 4.74724609 0.00189453 6.40625 0.0078125 C7.49035156 0.00394531 8.57445312 0.00007813 9.69140625 -0.00390625 C10.72136719 -0.00261719 11.75132813 -0.00132813 12.8125 0 C14.24045898 0.00169189 14.24045898 0.00169189 15.69726562 0.00341797 C17.90625 0.1328125 17.90625 0.1328125 18.90625 1.1328125 C18.97883946 3.31920703 18.98998783 5.50781639 18.96875 7.6953125 C18.95972656 8.89285156 18.95070313 10.09039062 18.94140625 11.32421875 C18.92980469 12.25105469 18.91820313 13.17789063 18.90625 14.1328125 C16.41629335 15.37779083 14.71630089 15.26215622 11.93359375 15.265625 C10.46116211 15.26755859 10.46116211 15.26755859 8.95898438 15.26953125 C7.93095703 15.26566406 6.90292969 15.26179688 5.84375 15.2578125 C4.81185547 15.26167969 3.77996094 15.26554687 2.71679688 15.26953125 C1.73646484 15.26824219 0.75613281 15.26695313 -0.25390625 15.265625 C-1.15761963 15.26449707 -2.06133301 15.26336914 -2.99243164 15.26220703 C-5.09375 15.1328125 -5.09375 15.1328125 -6.09375 14.1328125 C-6.1926794 11.96800453 -6.223461 9.79987465 -6.21875 7.6328125 C-6.22132812 6.446875 -6.22390625 5.2609375 -6.2265625 4.0390625 C-6.00669484 -0.77215928 -4.34531534 0.00514848 0 0 Z M-3.09375 5.1328125 C-3.13629356 7.13235996 -3.13455783 9.13322886 -3.09375 11.1328125 C-1.2082247 13.0183378 1.48393831 12.26527939 3.98828125 12.26953125 C4.78621094 12.26566406 5.58414063 12.26179688 6.40625 12.2578125 C7.20417969 12.26167969 8.00210938 12.26554687 8.82421875 12.26953125 C12.6746432 12.6418086 12.6746432 12.6418086 15.90625 11.1328125 C16.07291667 8.6328125 16.07291667 8.6328125 15.90625 6.1328125 C14.93292739 4.93939498 14.93292739 4.93939498 13.14038086 5.01928711 C12.39151611 5.02452393 11.64265137 5.02976074 10.87109375 5.03515625 C10.06220703 5.03837891 9.25332031 5.04160156 8.41992188 5.04492188 C7.56978516 5.05330078 6.71964844 5.06167969 5.84375 5.0703125 C4.98974609 5.07482422 4.13574219 5.07933594 3.25585938 5.08398438 C1.13929337 5.09580877 -0.97723685 5.11374481 -3.09375 5.1328125 Z " fill="#7C7362" transform="translate(48.09375,74.8671875)"/>
<path d="M0 0 C0.78153946 -0.00095673 1.56307892 -0.00191345 2.36830139 -0.00289917 C4.01824016 -0.00357845 5.66818163 -0.00174175 7.31811523 0.00244141 C9.83518523 0.00778602 12.35207621 0.00249161 14.86914062 -0.00390625 C16.47526081 -0.00324528 18.08138088 -0.00196374 19.6875 0 C20.43660141 -0.00202423 21.18570282 -0.00404846 21.95750427 -0.00613403 C25.82405672 0.01109382 29.0779148 0.36636421 32.91015625 1.1328125 C32.91015625 8.0628125 32.91015625 14.9928125 32.91015625 22.1328125 C32.58015625 22.1328125 32.25015625 22.1328125 31.91015625 22.1328125 C31.91015625 16.5228125 31.91015625 10.9128125 31.91015625 5.1328125 C29.60015625 4.8028125 27.29015625 4.4728125 24.91015625 4.1328125 C25.57015625 4.7928125 26.23015625 5.4528125 26.91015625 6.1328125 C25.30520058 6.01838789 23.70117506 5.89086556 22.09765625 5.7578125 C21.20433594 5.68820313 20.31101563 5.61859375 19.390625 5.546875 C16.91015625 5.1328125 16.91015625 5.1328125 13.91015625 3.1328125 C13.91015625 4.1228125 13.91015625 5.1128125 13.91015625 6.1328125 C6.98015625 6.1328125 0.05015625 6.1328125 -7.08984375 6.1328125 C-6.42984375 5.8028125 -5.76984375 5.4728125 -5.08984375 5.1328125 C-5.08984375 4.4728125 -5.08984375 3.8128125 -5.08984375 3.1328125 C-6.07984375 3.7928125 -7.06984375 4.4528125 -8.08984375 5.1328125 C-9.40984375 5.1328125 -10.72984375 5.1328125 -12.08984375 5.1328125 C-12.08984375 3.8128125 -12.08984375 2.4928125 -12.08984375 1.1328125 C-8.12827088 -0.17066859 -4.12016699 -0.01110356 0 0 Z M3.91015625 3.1328125 C3.58015625 3.7928125 3.25015625 4.4528125 2.91015625 5.1328125 C3.90015625 4.8028125 4.89015625 4.4728125 5.91015625 4.1328125 C5.25015625 3.8028125 4.59015625 3.4728125 3.91015625 3.1328125 Z " fill="#D9C69F" transform="translate(51.08984375,68.8671875)"/>
<path d="M0 0 C0 0.66 0 1.32 0 2 C-4.455 2.495 -4.455 2.495 -9 3 C-8.99476318 3.69150146 -8.98952637 4.38300293 -8.98413086 5.09545898 C-8.963425 8.20946352 -8.95036037 11.32345361 -8.9375 14.4375 C-8.92912109 15.52611328 -8.92074219 16.61472656 -8.91210938 17.73632812 C-8.90888672 18.77080078 -8.90566406 19.80527344 -8.90234375 20.87109375 C-8.89710693 21.82943115 -8.89187012 22.78776855 -8.88647461 23.77514648 C-9 26 -9 26 -10 27 C-13.5 27.125 -13.5 27.125 -17 27 C-18 26 -18 26 -18.09765625 22.83984375 C-18.08025391 20.90818359 -18.08025391 20.90818359 -18.0625 18.9375 C-18.05347656 17.64714844 -18.04445312 16.35679688 -18.03515625 15.02734375 C-18.02355469 14.02832031 -18.01195312 13.02929688 -18 12 C-17.67 13.32 -17.34 14.64 -17 16 C-15.02 15.67 -13.04 15.34 -11 15 C-10.67 11.7 -10.34 8.4 -10 5 C-11.65 5 -13.3 5 -15 5 C-15 4.67 -15 4.34 -15 4 C-13.35 4 -11.7 4 -10 4 C-10 3.34 -10 2.68 -10 2 C-11.65 2 -13.3 2 -15 2 C-15 1.67 -15 1.34 -15 1 C-9.92928099 0.28832014 -5.11791642 -0.10662326 0 0 Z " fill="#E3C995" transform="translate(64,40)"/>
<path d="M0 0 C0.33 0 0.66 0 1 0 C1.08078641 2.12438339 1.13909141 4.2496323 1.1875 6.375 C1.22230469 7.55835938 1.25710937 8.74171875 1.29296875 9.9609375 C1.19628906 10.96382812 1.09960938 11.96671875 1 13 C-2.45029042 15.30019361 -3.94554358 15.43132515 -8 15 C-10.20914 11.68629 -10.22481553 10.6553979 -10.125 6.8125 C-10.10695313 5.91144531 -10.08890625 5.01039062 -10.0703125 4.08203125 C-10.04710938 3.39496094 -10.02390625 2.70789062 -10 2 C-9.04287109 1.90912109 -9.04287109 1.90912109 -8.06640625 1.81640625 C-6.82697266 1.69072266 -6.82697266 1.69072266 -5.5625 1.5625 C-4.73878906 1.48128906 -3.91507812 1.40007813 -3.06640625 1.31640625 C-1.01337975 1.21069185 -1.01337975 1.21069185 0 0 Z " fill="#1F180A" transform="translate(87,55)"/>
<path d="M0 0 C0.99 0 1.98 0 3 0 C6.20129094 6.72271097 6.34152101 15.67799567 4.13671875 22.78125 C3.42993428 24.36444722 2.70378078 25.93916254 1.95703125 27.50390625 C0.17907966 32.14109427 0.16913188 37.07826229 0 42 C0.66 42.33 1.32 42.66 2 43 C1.01 43 0.02 43 -1 43 C-1 35.08 -1 27.16 -1 19 C-0.34 19 0.32 19 1 19 C0.67 12.73 0.34 6.46 0 0 Z " fill="#D3BD90" transform="translate(87,49)"/>
<path d="M0 0 C1.38594404 4.67074055 1.06372054 9.15723892 1 14 C4.3 14.33 7.6 14.66 11 15 C11.33 14.34 11.66 13.68 12 13 C15.3 13.66 18.6 14.32 22 15 C17.74850237 17.12574882 14.82797878 17.23663392 10.25 17.125 C7.8575 17.08375 5.465 17.0425 3 17 C3 24.26 3 31.52 3 39 C-0.465 39.495 -0.465 39.495 -4 40 C-3.34950684 39.60433838 -2.69901367 39.20867676 -2.02880859 38.80102539 C0.18928851 37.18860369 0.18928851 37.18860369 0.48583984 34.76342773 C0.47762207 33.91208252 0.4694043 33.0607373 0.4609375 32.18359375 C0.45707031 31.25482422 0.45320313 30.32605469 0.44921875 29.36914062 C0.42472656 28.40169922 0.40023437 27.43425781 0.375 26.4375 C0.37371094 25.46619141 0.37242188 24.49488281 0.37109375 23.49414062 C0.62433938 18.2073507 0.62433938 18.2073507 -2 14 C-2.1953125 10.9609375 -2.1953125 10.9609375 -2.125 7.375 C-2.10695312 6.18648437 -2.08890625 4.99796875 -2.0703125 3.7734375 C-2.04710937 2.85820313 -2.02390625 1.94296875 -2 1 C-1.34 0.67 -0.68 0.34 0 0 Z " fill="#483D27" transform="translate(35,53)"/>
<path d="M0 0 C0.66 0 1.32 0 2 0 C2.02887236 3.81248426 2.04675492 7.6249407 2.0625 11.4375 C2.07087891 12.52611328 2.07925781 13.61472656 2.08789062 14.73632812 C2.09111328 15.77080078 2.09433594 16.80527344 2.09765625 17.87109375 C2.10289307 18.82943115 2.10812988 19.78776855 2.11352539 20.77514648 C2 23 2 23 1 24 C-5.52542373 24.23728814 -5.52542373 24.23728814 -8 23 C-8 19.7 -8 16.4 -8 13 C-5.03 13 -2.06 13 1 13 C0.67 8.71 0.34 4.42 0 0 Z " fill="#191307" transform="translate(64,44)"/>
<path d="M0 0 C0.66 0.33 1.32 0.66 2 1 C1.2575 2.8253125 1.2575 2.8253125 0.5 4.6875 C-1.50325443 10.64979282 -1.68830638 16.76948637 -1 23 C-0.34 23.66 0.32 24.32 1 25 C1.22705078 27.06298828 1.22705078 27.06298828 1.1953125 29.5703125 C1.18886719 30.46621094 1.18242188 31.36210938 1.17578125 32.28515625 C1.15902344 33.22230469 1.14226563 34.15945312 1.125 35.125 C1.11597656 36.06988281 1.10695313 37.01476562 1.09765625 37.98828125 C1.07404522 40.32577292 1.04111516 42.66276123 1 45 C0.67 45 0.34 45 0 45 C-0.05607422 43.91332031 -0.05607422 43.91332031 -0.11328125 42.8046875 C-0.49830109 37.14263107 -1.08373423 32.98195403 -4 28 C-6.70958978 19.61317449 -5.51687475 10.70416611 -1.97265625 2.828125 C-1 1 -1 1 0 0 Z " fill="#E0C899" transform="translate(35,44)"/>
<path d="M0 0 C3.3 0 6.6 0 10 0 C10 3.3 10 6.6 10 10 C7.01787087 11.49106457 4.28390342 11.11941467 1 11 C0 10 0 10 -0.09765625 7.71484375 C-0.06510417 5.14322917 -0.03255208 2.57161458 0 0 Z " fill="#181205" transform="translate(35,57)"/>
<path d="M0 0 C1 1 1 1 1.0625 4.0625 C1.041875 5.031875 1.02125 6.00125 1 7 C-0.32 7 -1.64 7 -3 7 C-3 8.32 -3 9.64 -3 11 C-1.68 11 -0.36 11 1 11 C1 11.66 1 12.32 1 13 C-1.97 13 -4.94 13 -8 13 C-8 9.04 -8 5.08 -8 1 C-5.05549278 0.01849759 -3.06481021 -0.1613058 0 0 Z " fill="#1D170B" transform="translate(79,76)"/>
<path d="M0 0 C0.33 0 0.66 0 1 0 C1.33 2.64 1.66 5.28 2 8 C4.97 8.495 4.97 8.495 8 9 C8 12.63 8 16.26 8 20 C5.69 20 3.38 20 1 20 C0.29867087 13.29980211 -0.11044961 6.73742646 0 0 Z " fill="#E4CA98" transform="translate(67,47)"/>
<path d="M0 0 C1.65 0 3.3 0 5 0 C5.66 0.66 6.32 1.32 7 2 C7.99 2 8.98 2 10 2 C9.855625 2.556875 9.71125 3.11375 9.5625 3.6875 C8.97230872 6.11384195 8.476571 8.54906345 8 11 C5.69 11 3.38 11 1 11 C0.67 7.37 0.34 3.74 0 0 Z " fill="#53514E" transform="translate(77,45)"/>
<path d="M0 0 C6.93 0 13.86 0 21 0 C21 2.97 21 5.94 21 9 C19.44393249 10.55606751 17.94042629 10.12970769 15.78125 10.1328125 C14.50701172 10.13474609 14.50701172 10.13474609 13.20703125 10.13671875 C11.86705078 10.13091797 11.86705078 10.13091797 10.5 10.125 C9.60667969 10.12886719 8.71335937 10.13273437 7.79296875 10.13671875 C6.94347656 10.13542969 6.09398437 10.13414063 5.21875 10.1328125 C4.43435547 10.13168457 3.64996094 10.13055664 2.84179688 10.12939453 C1 10 1 10 0 9 C0 6.03 0 3.06 0 0 Z M1 2 C0.95745644 3.99954746 0.95919217 6.00041636 1 8 C2.8855253 9.8855253 5.57768831 9.13246689 8.08203125 9.13671875 C8.87996094 9.13285156 9.67789063 9.12898438 10.5 9.125 C11.29792969 9.12886719 12.09585938 9.13273437 12.91796875 9.13671875 C16.7683932 9.5089961 16.7683932 9.5089961 20 8 C20.16666667 5.5 20.16666667 5.5 20 3 C19.02667739 1.80658248 19.02667739 1.80658248 17.23413086 1.88647461 C16.48526611 1.89171143 15.73640137 1.89694824 14.96484375 1.90234375 C14.15595703 1.90556641 13.34707031 1.90878906 12.51367188 1.91210938 C11.66353516 1.92048828 10.81339844 1.92886719 9.9375 1.9375 C9.08349609 1.94201172 8.22949219 1.94652344 7.34960938 1.95117188 C5.23304337 1.96299627 3.11651315 1.98093231 1 2 Z " fill="#C4B496" transform="translate(44,78)"/>
<path d="M0 0 C1.99954746 -0.04254356 4.00041636 -0.04080783 6 0 C7 1 7 1 7.09765625 3.28515625 C7.08605469 4.20167969 7.07445313 5.11820313 7.0625 6.0625 C7.05347656 6.98160156 7.04445313 7.90070312 7.03515625 8.84765625 C7.02355469 9.55792969 7.01195313 10.26820312 7 11 C4.69 11 2.38 11 0 11 C0 7.37 0 3.74 0 0 Z " fill="#504F4F" transform="translate(58,45)"/>
<path d="M0 0 C1.47906892 -0.02689216 2.95827483 -0.04634621 4.4375 -0.0625 C5.26121094 -0.07410156 6.08492187 -0.08570312 6.93359375 -0.09765625 C9 0 9 0 10 1 C10.07271741 3.35313555 10.08370868 5.70833668 10.0625 8.0625 C10.05347656 9.35285156 10.04445313 10.64320312 10.03515625 11.97265625 C10.02355469 12.97167969 10.01195313 13.97070312 10 15 C6.04 15 2.08 15 -2 15 C-2.28571429 4.28571429 -2.28571429 4.28571429 0 0 Z M0 2 C0 5.96 0 9.92 0 14 C2.97 14 5.94 14 9 14 C9 13.34 9 12.68 9 12 C7.68 12 6.36 12 5 12 C5 10.68 5 9.36 5 8 C6.32 8 7.64 8 9 8 C9.04254356 6.00045254 9.04080783 3.99958364 9 2 C7.95509265 0.7321044 7.95509265 0.7321044 5.625 0.875 C2.88906952 0.88656262 2.88906952 0.88656262 0 2 Z " fill="#767166" transform="translate(71,75)"/>
<path d="M0 0 C3 0 6 0 9 0 C8.67 2.31 8.34 4.62 8 7 C6.68 7 5.36 7 4 7 C3.67 7.99 3.34 8.98 3 10 C1.02 10 -0.96 10 -3 10 C-2.01 6.7 -1.02 3.4 0 0 Z " fill="#5B5A58" transform="translate(40,45)"/>
<path d="M0 0 C0 0.66 0 1.32 0 2 C-4.455 2.495 -4.455 2.495 -9 3 C-8.99476318 3.69150146 -8.98952637 4.38300293 -8.98413086 5.09545898 C-8.963425 8.20946352 -8.95036037 11.32345361 -8.9375 14.4375 C-8.92912109 15.52611328 -8.92074219 16.61472656 -8.91210938 17.73632812 C-8.90888672 18.77080078 -8.90566406 19.80527344 -8.90234375 20.87109375 C-8.89710693 21.82943115 -8.89187012 22.78776855 -8.88647461 23.77514648 C-9 26 -9 26 -10 27 C-12.33297433 27.04092937 -14.66705225 27.04241723 -17 27 C-17 26.67 -17 26.34 -17 26 C-15.02 26 -13.04 26 -11 26 C-10.67 19.07 -10.34 12.14 -10 5 C-11.65 5 -13.3 5 -15 5 C-15 4.67 -15 4.34 -15 4 C-13.35 4 -11.7 4 -10 4 C-10 3.34 -10 2.68 -10 2 C-11.65 2 -13.3 2 -15 2 C-15 1.67 -15 1.34 -15 1 C-9.92928099 0.28832014 -5.11791642 -0.10662326 0 0 Z " fill="#BBA881" transform="translate(64,40)"/>
<path d="M0 0 C0.82242188 0.05220703 1.64484375 0.10441406 2.4921875 0.15820312 C4.49522899 0.28630462 6.49768871 0.42345061 8.5 0.5625 C8.5 1.5525 8.5 2.5425 8.5 3.5625 C6.19 3.2325 3.88 2.9025 1.5 2.5625 C2.16 3.2225 2.82 3.8825 3.5 4.5625 C1.8954444 4.42101011 0.29136233 4.27414314 -1.3125 4.125 C-2.20582031 4.04378906 -3.09914063 3.96257812 -4.01953125 3.87890625 C-6.5 3.5625 -6.5 3.5625 -9.5 2.5625 C-11.83299825 2.52295766 -14.16708189 2.51848268 -16.5 2.5625 C-16.83 1.9025 -17.16 1.2425 -17.5 0.5625 C-11.52842601 -0.36199827 -6.01758541 -0.4263273 0 0 Z " fill="#EAD4A7" transform="translate(74.5,70.4375)"/>
<path d="M0 0 C0.33 0 0.66 0 1 0 C1.85298376 3.67387495 2.10789471 7.0447393 2.0625 10.8125 C2.05347656 11.78832031 2.04445313 12.76414062 2.03515625 13.76953125 C2.02355469 14.50558594 2.01195313 15.24164063 2 16 C4.64 15.67 7.28 15.34 10 15 C10 15.66 10 16.32 10 17 C10.66 17.33 11.32 17.66 12 18 C7.52745503 19.49084832 3.47254497 19.49084832 -1 18 C-0.505 9.09 -0.505 9.09 0 0 Z " fill="#716244" transform="translate(66,51)"/>
<path d="M0 0 C0.66 0 1.32 0 2 0 C2 7.26 2 14.52 2 22 C-0.31 22.33 -2.62 22.66 -5 23 C-4.35256836 22.60127686 -3.70513672 22.20255371 -3.03808594 21.79174805 C-0.82915174 20.19176516 -0.82915174 20.19176516 -0.45410156 17.82348633 C-0.4331543 17.00130615 -0.41220703 16.17912598 -0.390625 15.33203125 C-0.35839844 14.43935547 -0.32617188 13.54667969 -0.29296875 12.62695312 C-0.27169922 11.23379883 -0.27169922 11.23379883 -0.25 9.8125 C-0.22035156 8.87212891 -0.19070312 7.93175781 -0.16015625 6.96289062 C-0.08946438 4.64184084 -0.03676835 2.32179465 0 0 Z " fill="#5E5440" transform="translate(36,70)"/>
<path d="M0 0 C1 2 1 2 0.44140625 3.9453125 C0.15136719 4.66460937 -0.13867188 5.38390625 -0.4375 6.125 C-0.72496094 6.84945312 -1.01242188 7.57390625 -1.30859375 8.3203125 C-1.53675781 8.87460937 -1.76492187 9.42890625 -2 10 C-0.02 10 1.96 10 4 10 C4.33 9.01 4.66 8.02 5 7 C5 8.32 5 9.64 5 11 C2.36 11 -0.28 11 -3 11 C-3.66 9.68 -4.32 8.36 -5 7 C-3.39911152 4.59866729 -1.74271938 2.297221 0 0 Z " fill="#4A463F" transform="translate(39,45)"/>
<path d="M0 0 C3.63 0.66 7.26 1.32 11 2 C6.74213431 4.12893285 4.66111976 4.33899053 0 4 C-0.99 3.34 -1.98 2.68 -3 2 C-2.01 2 -1.02 2 0 2 C0 1.34 0 0.68 0 0 Z " fill="#7B6948" transform="translate(46,66)"/>
<path d="M0 0 C6.0546875 -0.1953125 6.0546875 -0.1953125 8 0 C8.66 0.66 9.32 1.32 10 2 C9.625 4.125 9.625 4.125 9 6 C8.34 5.01 7.68 4.02 7 3 C5.02252878 2.63702064 5.02252878 2.63702064 2.875 2.8125 C1.59625 2.874375 0.3175 2.93625 -1 3 C-0.67 2.01 -0.34 1.02 0 0 Z " fill="#393429" transform="translate(75,43)"/>
<path d="M0 0 C0.99 0.66 1.98 1.32 3 2 C2.125 5.875 2.125 5.875 1 7 C-0.51928038 7.07179964 -2.04167482 7.08392007 -3.5625 7.0625 C-4.38878906 7.05347656 -5.21507813 7.04445313 -6.06640625 7.03515625 C-6.70449219 7.02355469 -7.34257813 7.01195312 -8 7 C-7.67 6.01 -7.34 5.02 -7 4 C-7 4.66 -7 5.32 -7 6 C-4.69 6 -2.38 6 0 6 C0 4.02 0 2.04 0 0 Z " fill="#3B362A" transform="translate(85,50)"/>
<path d="M0 0 C0.80824219 0.10183594 1.61648437 0.20367187 2.44921875 0.30859375 C3.06410156 0.39238281 3.67898437 0.47617187 4.3125 0.5625 C3.9825 1.2225 3.6525 1.8825 3.3125 2.5625 C2.054375 2.60375 0.79625 2.645 -0.5 2.6875 C-1.20769531 2.71070313 -1.91539063 2.73390625 -2.64453125 2.7578125 C-4.6875 2.5625 -4.6875 2.5625 -7.6875 0.5625 C-4.59271121 -0.46909626 -3.16118607 -0.41232862 0 0 Z " fill="#484030" transform="translate(62.6875,42.4375)"/>
<path d="M0 0 C0.33 0 0.66 0 1 0 C1 2.64 1 5.28 1 8 C-1.31 8.33 -3.62 8.66 -6 9 C-5.38125 8.62875 -4.7625 8.2575 -4.125 7.875 C-1.4489404 5.51377094 -0.9063156 3.39868348 0 0 Z " fill="#777269" transform="translate(37,84)"/>
</svg>
